<?xml version="1.0" standalone="no"?>
<!DOCTYPE svg PUBLIC "-//W3C//DTD SVG 1.1//EN" "http://www.w3.org/Graphics/SVG/1.1/DTD/svg11.dtd" >
<svg>
<metadata>
Created by FontForge 20090622 at Wed Mar  7 15:15:48 2018
 By deploy user
&#194;&#169; 2004 Serge Cortesi/Signum Art for Dufresne&#226;&#128;&#144;Corrigan&#226;&#128;&#144;Scarlett. Version 7 &#226;&#128;&#144; 10/06/04
</metadata>
<defs>
<font id="BonneMamanOffice" horiz-adv-x="259" >
  <font-face 
    font-family="BonneMaman"
    font-weight="400"
    font-stretch="normal"
    units-per-em="1000"
    panose-1="0 0 4 0 0 0 0 0 0 0"
    ascent="800"
    descent="-200"
    x-height="197"
    cap-height="682"
    bbox="-222.143 -277 1136 800.023"
    underline-thickness="20"
    underline-position="-123"
    unicode-range="U+0020-U+F002"
  />
<missing-glyph horiz-adv-x="500" 
d="M63 0v712h375v-712h-375zM125 63h250v587h-250v-587z" />
    <glyph glyph-name=".notdef" horiz-adv-x="500" 
d="M63 0v712h375v-712h-375zM125 63h250v587h-250v-587z" />
    <glyph glyph-name=".null" horiz-adv-x="0" 
 />
    <glyph glyph-name="nonmarkingreturn" horiz-adv-x="178" 
 />
    <glyph glyph-name="space" unicode=" " horiz-adv-x="178" 
 />
    <glyph glyph-name="exclam" unicode="!" horiz-adv-x="227" 
d="M153 188q-14 -35 -36 -56q-12 2 -13 4l1 12q2 19 22 64q64 140 105 247q27 68 43 80h33q12 0 12 -12t-12 -36zM75 -6q-26 0 -26 31q0 17 11.5 31.5t27.5 14.5q26 0 26 -30q0 -17 -11.5 -32t-27.5 -15z" />
    <glyph glyph-name="quotedbl" unicode="&#x22;" horiz-adv-x="265" 
d="M174 330l-1 6q46 35 47 62q0 8 -10.5 19t-10.5 21q0 12 9 22.5t22 10.5q5 0 11 -2q25 -9 25 -38q0 -38 -27 -66t-65 -35zM267 326l-1 6q47 35 47 62q1 8 -10 19t-11 21q0 12 9 22.5t22 10.5q5 0 12 -2q24 -9 24 -38q0 -38 -27 -66t-65 -35z" />
    <glyph glyph-name="numbersign" unicode="#" horiz-adv-x="368" 
d="M264 273l-24 -64q61 0 75 3q-9 -34 -34 -40q-5 -1 -57 -1q-19 -49 -29 -104h-6q-25 -1 -25 18q0 22 25 87l-81 2q-21 -56 -34 -108h-5q-23 -1 -23 18q0 18 28 91q-20 0 -60 -1q7 29 26 35q6 1 47 1l26 66q-48 1 -80 -1q10 39 51 39q6 0 20.5 -1t21.5 -1q12 30 27 94l5 1
q27 0 27 -19q0 -14 -24 -78h80q23 60 28 96h5q29 1 29 -16q0 -12 -25 -80q21 -1 62 3q-7 -41 -40 -41h-16q-13 1 -20 1zM147 275l-25 -66h41q25 1 41 1l24 64z" />
    <glyph glyph-name="dollar" unicode="$" horiz-adv-x="314" 
d="M294 537l-21 -47q36 -10 48.5 -20.5t10.5 -22.5q-5 -20 -23 -38q-8 21 -54 38l-56 -136q64 -58 69 -105q8 -76 -46 -139q-59 -68 -155 -72l-20 -47l-21 8l17 40q-27 6 -48 27t-23 47q-6 49 31 100q10 3 17 -5q-22 -38 -19 -67q5 -48 60 -58l94 226q-14 13 -41 41
q-21 28 -24 54q-4 40 36 85q46 51 109 51q6 0 16 -1l22 49zM181 328l52 126q-9 2 -17 2q-44 0 -66 -20q-18 -17 -15 -40q3 -28 46 -68zM173 249l-7 -16h-1l-81 -195q64 2 106.5 36.5t37.5 86.5q-3 27 -26 56q-11 14 -29 32z" />
    <glyph glyph-name="percent" unicode="%" horiz-adv-x="522" 
d="M476 538q-17 -29 -423 -557q-20 -26 -60 -88q-21 2 -21 16q0 13 23 44l391 528q60 82 90 141q24 -4 24 -24q0 -19 -24 -60zM46 223q-26 0 -40 11q-27 29 -27 97q0 83 59 149q55 62 116 62q36 0 55 -27.5t19 -64.5q0 -85 -47 -152q-52 -75 -135 -75zM124 507
q-31 0 -63 -44q-36 -49 -36 -109q0 -47 14 -76q9 -18 25 -18q45 -1 81 52t36 114q0 81 -57 81zM356 -7q-26 0 -40 10q-27 29 -27 98q0 83 59 148q55 63 116 63q36 0 56 -30q18 -26 18 -62q0 -86 -47 -152q-52 -75 -135 -75zM434 277q-31 0 -63 -44q-36 -49 -36 -110
q0 -46 14 -75q8 -18 24 -19q45 -1 81.5 52.5t36.5 114.5q0 81 -57 81z" />
    <glyph glyph-name="ampersand" unicode="&#x26;" horiz-adv-x="571" 
d="M618 301h-7q-4 19 -28 19q-62 0 -139 -95l-47 -58l-54 -66q69 -71 152 -71q66 0 100 46q2 3 8 3q7 0 7 -6q0 -10 -12 -22q-53 -58 -161 -58q-81 0 -138 62q-45 -35 -76 -48q-37 -15 -88 -15q-46 0 -87 33q-51 39 -51 106q0 61 47 114q52 58 142 77q4 59 52.5 115.5
t101.5 56.5q51 0 51 -47q0 -33 -43 -75q-48 -47 -113 -59q13 -98 89 -196q28 23 77 93q36 51 65 85q71 80 123 80q41 0 38 -30q-1 -2 -9 -44zM312 459q-33 0 -56.5 -36t-21.5 -88q50 10 79 40q24 25 24 48q0 36 -25 36zM187 298q-55 -10 -91 -46q-42 -42 -42 -108
q0 -49 34.5 -83.5t92.5 -34.5q49 0 100 45q-78 92 -94 227z" />
    <glyph glyph-name="quotesingle" unicode="'" horiz-adv-x="169" 
d="M167 330l-1 6q46 35 47 62q0 8 -10.5 19t-10.5 21q0 13 9 23t22 10q5 0 11 -2q25 -9 25 -38q0 -38 -27 -66t-65 -35z" />
    <glyph glyph-name="parenleft" unicode="(" horiz-adv-x="288" 
d="M173 214q-24 -92 -24 -180q0 -141 54 -234q-11 -2 -17 -2q-8 0 -14 7q-12 17 -13 18q-31 31 -50 99q-21 72 -21 158q0 80 19 156q50 208 229 384q28 27 59 27q12 0 25 -3q-66 -44 -138 -169t-109 -261z" />
    <glyph glyph-name="parenright" unicode=")" horiz-adv-x="224" 
d="M104 231q24 91 24 179q0 141 -55 235q11 3 17 3q9 0 14 -8l14 -18q30 -31 50 -99q21 -72 21 -158q0 -79 -19 -156q-50 -208 -229 -383q-30 -29 -59 -29q-12 0 -25 5q66 43 138 168.5t109 260.5z" />
    <glyph glyph-name="asterisk" unicode="*" horiz-adv-x="218" 
d="M340 431q-7 -2 -23 -4q-9 -1 -32 -4q9 -25 24 -53q-13 -12 -25 -12q-22 0 -24 28q-1 5 0 34q-34 -29 -54 -57q-16 10 -16 23q0 19 24 33q5 3 27 15l-56 24q11 32 34 26q8 -2 18 -12l20 -20q9 40 13 66q17 2 27 -2t8 -12q-2 -16 -27 -57q48 15 68 28q5 -13 5 -23
q0 -15 -11 -21z" />
    <glyph glyph-name="plus" unicode="+" horiz-adv-x="322" 
d="M247 217q-25 -4 -79 0q-13 -35 -25 -75q-10 -30 -11 -47q-15 -3 -24 -3q-17 0 -15 14q3 25 35 114q-27 1 -65 1q-27 1 -38 -1q3 33 25.5 38t93.5 3l19 60t13 49q19 3 28 1q14 -4 13 -20q-1 -9 -33 -93q21 -2 58 0q16 0 47 3q-2 -39 -42 -44z" />
    <glyph glyph-name="comma" unicode="," horiz-adv-x="150" 
d="M16 -80l-1 6q46 35 47 62q0 8 -10.5 19t-10.5 21q0 12 9 22.5t22 10.5q5 0 11 -2q25 -9 25 -38q0 -38 -27 -66t-65 -35z" />
    <glyph glyph-name="hyphen" unicode="-" horiz-adv-x="240" 
d="M211 175q8 -7 8 -19q0 -33 -57 -37q-74 -5 -88 -14q-11 10 -11 20q0 32 62 37q76 5 86 13z" />
    <glyph glyph-name="hyphen" unicode="&#x2010;" horiz-adv-x="240" 
d="M211 175q8 -7 8 -19q0 -33 -57 -37q-74 -5 -88 -14q-11 10 -11 20q0 32 62 37q76 5 86 13z" />
    <glyph glyph-name="period" unicode="." horiz-adv-x="160" 
d="M75 -6q-26 0 -26 31q0 17 11.5 31.5t27.5 14.5q26 0 26 -30q0 -17 -11.5 -32t-27.5 -15z" />
    <glyph glyph-name="slash" unicode="/" horiz-adv-x="404" 
d="M64 -19q-55 -73 -75 -110q-26 3 -26 21q0 16 17 38l406 551q60 82 90 141q30 -5 30 -31q0 -21 -18 -51.5t-424 -558.5z" />
    <glyph glyph-name="zero" unicode="0" horiz-adv-x="415" 
d="M384 341q-7 -139 -97 -244q-87 -101 -186 -101q-88 0 -88 135q0 90 39 187q41 101 98 144q6 4 10 0t-1 -9q-36 -34 -63.5 -123.5t-27.5 -171.5q0 -130 71 -130q64 0 121.5 85.5t63.5 203.5q4 78 -14 116t-51 38q-61 0 -100 -95q-33 -83 -39 -205q0 -8 -4 -9q-5 0 -6 7
q-7 33 -7 66q0 108 55.5 188t126.5 81q53 0 78.5 -41.5t20.5 -121.5z" />
    <glyph glyph-name="one" unicode="1" horiz-adv-x="319" 
d="M297 502q11 12 42 15v-1q-7 -10 -23 -43q-60 -128 -159 -455q37 0 63 2v-19q-103 4 -193 0v19l59 -2q71 152 141 382l-4 3q-130 -97 -174 -97q-33 0 -32 38q118 -12 280 158z" />
    <glyph glyph-name="two" unicode="2" horiz-adv-x="426" 
d="M419 104q9 1 11 -6q-64 -105 -122 -105q-48 0 -98 27l-89 48q-74 -76 -116 -76q-48 1 -47 41q1 32 25 53q30 25 83 24q41 -1 66 -9q82 75 133 150q54 79 56 135q3 81 -72 81q-39 0 -78 -42.5t-39 -85.5q-8 -3 -17 0q-10 4 -9 10q6 50 62 102q61 55 123 55q90 0 87 -90
q-2 -71 -84 -176q-57 -73 -136 -145l87 -33q50 -19 90 -19q42 0 84 61zM11 16q30 0 89 61q-20 10 -54 10q-60 0 -61 -48q-1 -23 26 -23z" />
    <glyph glyph-name="three" unicode="3" horiz-adv-x="328" 
d="M321 425q-3 -35 -32 -72t-60 -51q72 -32 67 -102q-6 -75 -76 -140q-74 -68 -165 -68q-36 0 -59 20.5t-21 46.5q2 24 26 56l5 -2q-5 -12 -5 -23q0 -27 29 -44q26 -16 66 -16q70 0 112 49q32 37 35 76q3 46 -20 79q-18 27 -44 35q-5 3 -11 2q-30 -16 -49 -16q-32 0 -31 15
q2 19 34 30q27 9 56 9q9 0 25 -3q55 35 59 97q2 26 -13 42.5t-43 16.5q-36 -1 -74 -39q-4 2 -8 9q16 31 56 51q34 18 65 18q38 0 58.5 -22.5t17.5 -53.5z" />
    <glyph glyph-name="four" unicode="4" horiz-adv-x="369" 
d="M375 215l-30 -50q-21 -30 -41.5 -31t-53.5 -1l-42 -155q-4 -16 -36 -14q12 25 57 170l-186 11q-23 2 -66 -40q-7 0 -14 4q60 59 348 375q12 13 27 13q6 0 15 -1h14l-1 -5q-165 -156 -292 -301q33 2 86 0q57 -3 86 -1q12 37 21 78q1 6 11 9t17 1q-17 -45 -28 -90
q29 2 57 3q33 5 46 28z" />
    <glyph glyph-name="five" unicode="5" horiz-adv-x="372" 
d="M410 519q-54 -78 -99 -79q-31 0 -124 6q-23 -55 -38 -112q32 10 67 10q43 0 73 -29q38 -38 33 -113q-5 -67 -62 -134q-66 -79 -150 -79q-37 0 -69 22q-39 26 -36 72q1 17 21 60q1 -1 5 -3q-6 -19 -4 -27q14 -80 119 -80q67 0 106 57q27 40 29 79q4 58 -26 90
q-26 29 -69 29q-52 0 -79 -28q-6 2 -11 10q42 93 74 193q10 13 34 35q114 -9 113 -9q55 1 88 35z" />
    <glyph glyph-name="six" unicode="6" horiz-adv-x="365" 
d="M391 445q-3 -26 -28 -54q-1 0 -4 1q7 15 7 28q0 39 -65 39q-82 0 -152 -87t-82 -194q-2 -20 -2 -38q0 -64 28 -95q21 -24 52 -24q34 0 58 28q28 30 33 82q5 46 -19 82t-62 36q-15 0 -44 -17q-6 6 -3 9q44 40 103 39q36 -1 59 -32.5t18 -77.5q-9 -82 -69 -136
q-55 -49 -120 -49q-89 0 -89 115q0 15 2 31q14 140 124 259q103 112 196 112q64 0 59 -57z" />
    <glyph glyph-name="seven" unicode="7" horiz-adv-x="351" 
d="M399 507l-1 -8q-83 -86 -187 -209q55 0 93 2v-21q-50 1 -107 1l-48 -57q-70 -84 -73 -229q-23 -1 -29 8q-12 25 -10 78q3 63 66 132l61 68q-45 0 -81 -1v21q49 -2 97 -2l131 146q-31 1 -77 15q-53 16 -76 18q-30 0 -54 -41q-20 -32 -28 -71h-6q3 67 34 107q35 46 99 45
q24 0 73.5 -13t75.5 -13q24 7 40 25z" />
    <glyph glyph-name="eight" unicode="8" horiz-adv-x="340" 
d="M318 436q-2 -33 -35 -72q-17 -19 -65 -62q68 -65 63 -140q-5 -68 -67.5 -118t-128.5 -50q-46 0 -71 28q-20 24 -18 58q5 68 60 123q24 24 97 73q-64 67 -61 109t49.5 80t107.5 38q74 0 69 -67zM234 131q3 37 -31 88q-8 14 -35 42q-127 -83 -132 -158q-6 -79 77 -79
q42 0 78 28q40 30 43 79zM203 316q66 53 69 95q2 28 -14 45.5t-44 17.5q-31 0 -51 -20q-16 -17 -18 -38q-3 -44 58 -100z" />
    <glyph glyph-name="nine" unicode="9" horiz-adv-x="373" 
d="M339 355q-5 -141 -110 -265q-100 -118 -193 -118q-38 0 -59 20q-17 17 -16 42q1 27 24 58l4 -2q-3 -9 -3 -19q0 -56 81 -56t149 94q67 91 71 199q3 85 -29 126q-24 30 -60 30q-71 0 -75 -110q-2 -46 20.5 -77.5t60.5 -31.5q16 0 41 15q6 -6 3 -9q-39 -38 -98 -37
q-35 1 -56.5 28t-19.5 74q3 82 55 136q49 49 113 49q48 0 74 -38.5t23 -107.5z" />
    <glyph glyph-name="colon" unicode=":" horiz-adv-x="157" 
d="M110 139q-26 0 -26 31q0 17 11.5 31.5t27.5 14.5q26 0 26 -30q0 -17 -11.5 -32t-27.5 -15zM74 -11q-26 0 -26 31q0 17 11.5 31.5t27.5 14.5q26 0 26 -30q0 -17 -11.5 -32t-27.5 -15z" />
    <glyph glyph-name="semicolon" unicode=";" horiz-adv-x="157" 
d="M21 -80l-1 6q46 35 47 62q0 8 -10.5 19t-10.5 21q0 13 9 23t22 10q5 0 11 -2q25 -9 25 -38q0 -38 -27 -66t-65 -35zM110 139q-26 0 -26 31q0 17 11.5 31.5t27.5 14.5q26 0 26 -30q0 -17 -11.5 -32t-27.5 -15z" />
    <glyph glyph-name="less" unicode="&#x3c;" horiz-adv-x="178" 
d="M187 204q-13 -21 -37 -40.5l-47 -36.5l21 -43.5t10 -37.5q0 -7 -2 -14q-4 -14 -18 -21l-23 52q-18 40 -28 56q-7 11 6 21q75 54 121 96q7 -15 -3 -32z" />
    <glyph glyph-name="equal" unicode="=" horiz-adv-x="367" 
d="M296 333q8 -8 8 -22q0 -32 -107 -34q-123 -2 -138 -12q-11 10 -11 23q0 24 57 30q21 3 112 4q67 1 79 11zM296 223q8 -8 8 -22q0 -32 -107 -34q-123 -2 -138 -12q-11 10 -11 23q0 24 57 30q21 3 112 4q67 1 79 11z" />
    <glyph glyph-name="greater" unicode="&#x3e;" horiz-adv-x="152" 
d="M25 47q14 22 32 40q16 10 53 38l-20 41.5t-10 38.5q0 26 18 35q15 -37 51 -107q7 -13 -6 -22q-70 -49 -121 -96q-7 16 3 32z" />
    <glyph glyph-name="question" unicode="?" horiz-adv-x="385" 
d="M102 125q-2 0 -2.5 1t-2.5 1q0 50 68 93l125 75q67 53 67 128q0 36 -25 56.5t-61 20.5q-30 0 -42.5 -7t-31.5 -30l-17 5q6 32 49 51q36 16 73 16q51 0 85 -29q37 -32 37 -84q0 -92 -59 -139q-28 -22 -125 -59q-83 -32 -114 -73q-20 -26 -24 -26zM75 -6q-26 0 -26 31
q0 17 11.5 31.5t27.5 14.5q26 0 26 -30q0 -17 -11.5 -32t-27.5 -15z" />
    <glyph glyph-name="A" unicode="A" horiz-adv-x="666" 
d="M839 664q-63 -21 -107 -90q-37 -57 -90 -188q-71 -177 -75 -291q-1 -30 5 -45t19 -15q25 1 64 43q36 39 65 92q7 -2 9 -10q2 -7 -1 -12q-31 -62 -80 -103q-52 -42 -110 -51q-43 2 -42 76q0 62 23 140q6 21 48 139l-5 3l-71 -7l-88 -123q-53 -73 -98 -119
q-111 -115 -185 -115q-79 0 -79 60q0 28 15 50h3q32 -45 93 -45q73 0 151 82q33 35 78 103q57 87 71 106q-44 3 -84 5q-7 4 -1 8q39 27 108 20q118 190 233 253q-53 -1 -103 3q-54 4 -71 4q-78 0 -125 -43q-42 -38 -42 -90q0 -57 63 -57q9 0 20 1v-1q-19 -21 -58 -21
q-34 0 -57 20.5t-23 54.5q0 50 53 95q75 64 224 64q28 0 71 -4t51 -4q60 0 125 19zM697 591q-79 -58 -184 -215h62q40 83 54 110q33 61 68 105z" />
    <glyph glyph-name="B" unicode="B" horiz-adv-x="636" 
d="M690 509q-5 -111 -159 -159q29 -16 56 -58q29 -46 27 -88q-4 -100 -85 -160q-66 -50 -131 -47q-34 1 -57 28.5t-23 58.5q0 39 35 39q10 0 18 -5t8 -15q0 -5 -3.5 -16.5t-3.5 -17.5q-1 -24 1 -32q5 -16 23 -17q64 -2 112 88q39 74 42 139q3 80 -48 82h-33q-1 0 -1 10
q7 11 24 16q60 19 96 72q33 49 36 111q2 57 -28 78q-15 -10 -29 -30.5l-27 -40.5l-95 -200q-58 -119 -116 -192q-127 -157 -230 -153q-31 1 -59 28q-32 29 -31 69q1 32 24 52t52 19q15 0 26 -7q3 -7 -7 -18q-13 -13 -14 -18q-10 -23 -12 -42q-6 -52 41 -56q54 -3 109 58
q48 53 86 139q69 156 80 178q49 100 104 167q25 31 70 63q-28 14 -78 16q-111 4 -202.5 -67.5t-105.5 -162.5q-2 -11 -2 -20q0 -49 39 -49q40 0 61 31l28 47q16 17 28 8q6 -4 6 -15q-1 -11 -6 -16q-66 -90 -141 -87q-44 1 -67 30q-19 25 -17 62q4 100 124 183.5t259 77.5
q58 -2 103 -21q21 12 66 25l4 -5q-15 -8 -44 -31q70 -47 67 -129z" />
    <glyph glyph-name="C" unicode="C" horiz-adv-x="409" 
d="M597 580q0 -79 -69 -151q-80 -83 -196 -83q-48 0 -99 15q-45 -92 -45 -174q0 -68 32 -108q34 -43 95 -43q57 0 107 56q41 45 43 69q18 -1 13 -19q-14 -55 -81 -104t-135 -49q-57 0 -92 39q-41 43 -41 123q0 61 25 128q6 16 43 96q-97 65 -97 159q0 51 34.5 96t84.5 60
q40 13 43 -3q-18 -2 -32 -9q-39 -19 -61.5 -59.5t-22.5 -82.5q0 -96 68 -133q75 119 183 195q88 62 137 62q63 0 63 -80zM552 579q0 45 -43 45q-60 0 -153 -94q-87 -87 -103 -145q20 -9 48 -9q80 0 163 61q88 65 88 142z" />
    <glyph glyph-name="D" unicode="D" horiz-adv-x="749" 
d="M794 399q6 -144 -88 -265q-108 -139 -281 -139q-79 0 -183 45q-85 -42 -138 -41q-42 1 -71 19q-33 20 -33 51q0 22 20 40q24 21 60 21q38 0 84 -21l77 -38q16 5 36 22l35 30q60 59 112 152q6 10 85 166q45 87 117 145q-26 25 -69 40q-39 14 -72 14q-95 0 -164 -55.5
t-66 -134.5q4 -87 95 -87q22 0 46 18t28 18q8 1 8 -10q1 -10 -7 -15q-81 -49 -128 -49q-95 0 -94 99q1 46 25 92q36 67 107 107q75 41 170 41q111 0 190 -60q93 -72 99 -205zM726 372q-6 132 -83 199q-17 -11 -30 -49q-122 -360 -338 -468q58 -31 148 -31q124 0 214 98
q95 102 89 251zM211 52q-66 34 -67 35q-38 18 -66 18q-57 0 -55 -34q1 -23 25 -35.5t59 -12.5q56 0 104 29z" />
    <glyph glyph-name="E" unicode="E" horiz-adv-x="498" 
d="M505 222q-4 -87 -95 -159t-201 -72q-91 0 -142 56q-43 48 -40 113q5 97 81 168q63 60 157 87q-1 1 -7 21q-3 13 -14 10q-26 -8 -52 -8q-34 0 -64 18q-40 24 -38 69q2 43 36.5 83t87.5 59q7 1 14 -5q-3 -5 -9 -9q-34 -23 -47 -37q-27 -30 -29 -71q-2 -35 29 -55
q23 -16 51 -16q9 0 25 2q7 82 82 146q68 57 128 57q40 0 38 -38q-2 -36 -66 -90q-52 -43 -116 -77q4 -28 24 -48q24 7 39 7q23 0 36 -5.5t13 -17.5q-2 -39 -70 -39q-20 0 -50 17q-12 7 -23 7q-36 0 -94 -40q-88 -59 -92 -162q-4 -71 43 -120.5t113 -49.5q68 0 133 46.5
t87 107.5q10 30 17 85q7 9 14 -5q2 -17 1 -35zM431 647q-32 0 -67 -40q-38 -45 -48 -110q51 23 90.5 60.5t40.5 73.5q1 16 -16 16z" />
    <glyph glyph-name="F" unicode="F" horiz-adv-x="475" 
d="M843 691h7q1 -9 -6 -16q-20 -20 -63 -34q-48 -17 -101 -16q-44 0 -87 10q-38 -20 -62 -87q-9 -25 -30 -100q83 0 128 2v-25q-60 2 -134 2q-11 -35 -21 -61q-57 -136 -158 -244q-117 -127 -222 -126q-59 1 -56 52q2 29 28 62q2 -1 6 -2q-2 -11 -2 -17q0 -45 61 -45
q91 -1 167 94q67 84 105 218q4 16 18 68q-38 0 -67 -1v25q35 -1 73 -1l5 14q36 119 124 174q-62 14 -125 15q-125 1 -196 -82q-50 -59 -54 -118q-3 -44 15.5 -71t54.5 -27q13 0 31.5 11.5t25.5 11.5t9.5 -4.5t1.5 -9.5q-3 -7 -38 -23q-44 -20 -84 -20q-44 1 -64 35
q-14 26 -12 61q6 88 88 168q105 103 272 101q43 0 123.5 -10t118.5 -11q89 -1 120 27z" />
    <glyph glyph-name="G" unicode="G" horiz-adv-x="362" 
d="M577 630q0 -84 -102 -164t-198 -75q-8 -17 -8 -35q0 -45 41 -45q63 0 116 53q6 1 13 -6q-48 -38 -70 -123q-6 -22 -31 -86q-38 -84 -96 -125q-53 -38 -98 -38q-39 0 -63 21q-19 18 -22 43q-4 48 35 64l2 -1q-4 -28 13 -55q23 -37 72 -36q31 1 53 29q26 35 63 139
q11 36 39 104q-26 -11 -58 -11q-69 -2 -69 72q0 24 7 47q-88 36 -88 119q0 49 31 94t78 72q20 11 24 11q5 0 9 -4q-89 -54 -89 -153q0 -67 51 -96q47 93 139 165q89 70 156 70q50 0 50 -50zM513 654q-59 0 -126.5 -70t-97.5 -161q12 -3 26 -3q84 0 161 75q71 69 71 127
q0 32 -34 32z" />
    <glyph glyph-name="H" unicode="H" horiz-adv-x="759" 
d="M935 636q0 -59 -63 -115q-39 -36 -116 -71q-40 -18 -153 -61q-43 -93 -58 -136q-28 -78 -31 -147q-4 -83 64 -83q54 0 94 46q43 50 45 128q1 24 -4 47l4 5q6 -9 8 -27q3 -21 6 -29q8 -19 8 -38q-2 -47 -48 -98q-53 -61 -128 -61q-111 0 -106 151q2 61 20 116l34 91
q-24 -7 -106 -34q-58 -122 -145 -222q-93 -108 -153 -108q-34 0 -51 25q-13 20 -12 45q2 79 98 154q77 59 195 105q42 122 63 166q47 99 115 155q-22 -5 -37 -5q-25 0 -54.5 6.5t-57.5 6.5q-67 0 -123.5 -53.5t-57.5 -106.5q-2 -86 67 -86q26 0 53 42q25 39 36 35
q8 -2 8 -11q0 -26 -42 -60q-47 -38 -98 -38q-72 0 -70 88q1 72 67 139q85 85 226 78q49 -2 93 -12q10 0 59 17l4 -11q-55 -28 -88 -86q-22 -39 -45 -116q-25 -88 -38 -118l106 33q55 114 138 200q78 81 154 109q31 12 55 13q65 1 65 -68zM873 671q-67 0 -146 -86
q-68 -74 -108 -164q171 57 237 123q48 48 48 90q0 37 -31 37zM334 290q-107 -34 -179 -104q-66 -64 -66 -118q0 -43 29 -43q42 0 103 64q75 79 113 201z" />
    <glyph glyph-name="I" unicode="I" horiz-adv-x="443" 
d="M681 673l-2 -4q-111 -48 -127 -112q-40 -164 -78 -256q-58 -139 -146 -221q-113 -104 -205 -104q-55 0 -82 34q-21 28 -16 65q8 66 103 165q3 -2 6 -7q-35 -38 -45 -54q-19 -31 -19 -67q0 -88 101 -89q42 0 91 32q39 27 64 59q52 69 93 220q43 162 83 226q22 35 57 60
q-28 -3 -76 0q-54 3 -75 1q-99 -6 -106 -93q-7 -74 64 -74q15 0 28 5l3 -5q-35 -27 -79 -27q-31 0 -48 27t-13 60q7 56 55 96q58 47 156 47q13 0 42.5 -1t43.5 -1q74 0 118 27q9 -1 9 -9z" />
    <glyph glyph-name="J" unicode="J" horiz-adv-x="402" 
d="M608 674q3 -3 -2 -6q-113 -59 -131 -135q-9 -34 -38 -157q52 36 107 95q9 -6 9 -15q0 -11 -10 -21q-46 -47 -117 -94q-58 -144 -91 -205q-60 -113 -139 -180q-73 -63 -143 -64q-85 -3 -85 67q0 8 1 17q7 48 80 124q104 108 302 219l39 139q39 107 105 157q-43 -9 -77 -9
h-25q-18 1 -25 1q-118 0 -132 -94q-1 -8 -1 -16q0 -30 17 -48q14 -14 33 -14q21 0 47 13q8 -5 0 -10q-47 -28 -85 -28q-24 0 -43 19t-19 49q0 37 28 75q24 33 58 55q61 37 175 37q49 0 69 5q25 5 82 31q6 2 11 -7zM337 283q-111 -63 -193 -129q-129 -102 -140 -176
q-4 -23 11 -39q16 -19 51 -19q56 0 103 44q67 61 109 148q31 65 59 171z" />
    <glyph glyph-name="K" unicode="K" horiz-adv-x="620" 
d="M832 610q-2 -25 -26 -46.5t-36 -19.5q-5 3 -1 7q37 44 37 76q0 34 -30 34q-22 0 -45.5 -22t-73.5 -115q-41 -78 -99 -109q-23 -12 -53 -21q8 -5 17 -15q41 -42 41 -78q0 -26 -22 -82l-63 -141q-4 -11 -4 -21q0 -32 31 -32q47 0 108 57q51 49 84 108q6 1 8.5 -4t1.5 -11
q-4 -18 -23 -45q-95 -135 -194 -135q-45 0 -64 32q-13 23 -10 55q2 31 21 74l73 139q5 11 5 23q0 29 -21 45q-24 19 -68 29q-46 -124 -89 -195q-61 -101 -151 -163q-58 -41 -105 -41q-87 0 -81 88q6 80 102 156l5 -7q-52 -64 -56 -119q-6 -78 66 -78q41 0 94 49
q45 43 76 117q13 31 44 134q33 108 66 172q49 93 120 146v3l-102 -10q-60 -7 -97 -21q-44 -16 -69.5 -53.5t-28.5 -80.5q-4 -52 41 -52q25 0 45 25t27 25q10 0 10 -7q0 -18 -40.5 -49t-72.5 -31q-72 0 -67 65q4 57 53 111q52 59 129 82q27 8 131 15q87 6 127 30q3 2 6 2
q4 0 5.5 -8t2.5 -10q-82 -29 -110 -86q-19 -38 -73 -187q14 -3 25 -3q60 -1 96 38q21 22 55 110q29 76 76 104q41 25 80 25q33 0 52 -26q16 -23 14 -52z" />
    <glyph glyph-name="L" unicode="L" horiz-adv-x="720" 
d="M812 576q0 -79 -87 -152q-99 -84 -247 -93q-94 -184 -205 -258q109 -46 234 -46q68 0 115 30q59 37 59 112q0 26 -11 43q3 3 7 3q13 0 21 -23q5 -16 5 -32q0 -61 -51 -113q-60 -61 -152 -61q-53 0 -126 24l-127 47q-95 -59 -163 -59q-42 0 -66 23q-18 17 -18 35
q0 67 94 67q35 0 148 -40q60 39 104 113q24 40 65 137q-148 49 -148 160q0 62 54 114q48 46 96 53q26 4 44 -1q-1 -11 -12 -12t-23 -1q-40 -6 -69 -40q-33 -39 -33 -95q0 -57 29.5 -95.5t74.5 -46.5q49 133 142 213q83 72 163 72q83 1 83 -78zM788 574q0 55 -72 55
q-81 0 -153 -130l-69 -138q108 -3 203 69q91 69 91 144zM217 68q-81 28 -132 30q-19 0 -35 -8q-20 -11 -20 -29q0 -38 63 -38t124 45z" />
    <glyph glyph-name="M" unicode="M" horiz-adv-x="684" 
d="M741 139q-2 -5 -14 -26q-22 -39 -72.5 -76t-83.5 -38q-19 0 -29.5 14.5t-10.5 47.5q1 51 37 154l128 351q4 11 4 16q0 3 -2 3q-13 0 -73 -120q-139 -280 -149 -302q-49 -100 -87 -135q-16 -18 -30 -17q-9 0 -11 8q-5 62 32 189l92 274l26 91q3 9 3 13t-3 2q-3 -1 -8 -8
q-16 -29 -82 -189t-100 -219q-42 -71 -108 -132q-72 -65 -117 -65q-84 0 -83 85q1 39 34 63l2 -1q-2 -12 -2 -22q0 -77 77 -76q45 0 85 57q66 94 158 296q56 123 88 183q32 57 68 95q33 34 46 29q4 -1 4 -12q0 -43 -49 -181q-67 -193 -91 -295q-5 -22 -5 -34q0 -14 6 -14
q13 0 34 41q19 37 96 206q58 126 106 200q29 45 63 72q28 21 37 18q3 -1 3 -17q0 -39 -16 -80q-58 -151 -79 -213q-44 -132 -62 -241q-3 -17 -3 -30q0 -42 22 -42q36 0 71 40q21 24 44 63q10 -2 10 -10q0 -3 -6 -16z" />
    <glyph glyph-name="N" unicode="N" horiz-adv-x="551" 
d="M824 644q-1 -45 -30 -65q-21 42 -64 44q-54 1 -92 -77q-40 -84 -81 -216l-68 -220q-42 -123 -90 -123q-18 0 -22 16q-11 57 -11 159q0 215 -14 320q-10 68 -16 71q-6 0 -15 -27l-62 -226q-37 -134 -78 -220q-23 -46 -68 -75.5t-97 -29.5q-17 0 -31 4q-17 6 -17 17
q0 16 15 16q8 0 15 -10.5t26 -10.5q70 0 130 126q41 88 88 252q53 182 83 255q6 12 13.5 25.5t20.5 16.5q31 8 41 -64q16 -122 23 -475q0 -25 2 -34q2 -17 9 -17q13 0 22 35q47 182 62 232q41 129 95 219q28 45 67 80q51 45 96 45q18 0 33 -13.5t15 -29.5z" />
    <glyph glyph-name="O" unicode="O" horiz-adv-x="548" 
d="M636 495q0 -101 -68 -222q-65 -117 -162 -195q-104 -84 -197 -84q-56 0 -92.5 49.5t-36.5 126.5q0 119 71 250q77 142 191 204q71 39 111 39q14 0 15 -5q-122 -46 -174 -98q-70 -68 -111 -169q-39 -96 -39 -185q2 -161 127 -158q110 2 218 158q103 150 103 282
q0 53 -30 85t-76 32q-93 0 -172 -129q-29 -46 -48.5 -112.5t-14.5 -94.5q-9 -6 -13 8q-6 23 -6 48q0 63 42 145q40 78 103 123q67 48 147 48q46 0 75 -30q37 -38 37 -116z" />
    <glyph glyph-name="P" unicode="P" horiz-adv-x="550" 
d="M698 510q0 -81 -71 -136q-63 -49 -136 -49q-33 0 -47.5 5.5t-38.5 25.5q-54 -134 -148 -245q-99 -117 -169 -116q-51 0 -51 45q0 22 24 50q31 -37 74 -39q28 -2 53 22q36 32 85 123q27 51 77 201q42 128 78 172q29 34 82 52v3q-37 8 -80 8q-133 0 -200 -74
q-48 -52 -48 -109q0 -70 63 -70q15 0 45 15q10 -10 0 -16q-57 -36 -104 -36q-31 0 -49 25q-15 22 -15 56q0 81 92 157q111 93 286 93q84 0 138 -41q60 -45 60 -122zM632 484q0 84 -70 121q-17 9 -26 9q-18 0 -46 -43q-45 -88 -76 -195q41 -26 87 -26q58 0 94.5 37t36.5 97z
" />
    <glyph glyph-name="Q" unicode="Q" horiz-adv-x="525" 
d="M746 -38q12 -2 8 -15q-15 -51 -84 -79q-61 -25 -140 -23q-60 2 -126 34q-66 42 -206 124q-28 15 -64 15q-38 0 -66 -19q-4 -1 -6 3.5l-2 4.5q57 49 123 56q2 0 5 -1q-50 53 -50 185q0 160 114 288q107 119 223 119q75 0 110 -70q23 -46 23 -100q0 -158 -92 -282
q-98 -133 -260 -157l181 -114q56 -36 76 -44q31 -13 74 -14q39 -1 66 15q38 24 51 66q22 10 42 8zM415 614q-70 0 -139 -95q-75 -102 -75 -227q0 -97 30 -157q21 -45 62 -46q98 -2 176 112q74 110 74 236q0 90 -37 136q-34 41 -91 41z" />
    <glyph glyph-name="R" unicode="R" horiz-adv-x="617" 
d="M672 160q6 -2 9 -11q3 -8 -1 -14q-52 -94 -134 -125q-34 -12 -57 -12q-58 0 -57 73q1 26 13 60q12 28 23 57q24 61 24 96q0 31 -17.5 42t-45.5 20q-6 6 -6 9q0 6 6 15q12 -4 27 -4q40 0 86 27q62 38 63 104q1 45 -20 74q-18 25 -43 28q-16 -4 -30 -17q-23 -23 -70 -131
q-77 -180 -104 -233q-51 -101 -113 -162t-118 -63q-54 -2 -56 43q-1 22 22 51q33 -36 75 -37q68 -2 132 150q33 78 60 162q28 88 40 117q38 94 142 134q-41 23 -115 23q-73 0 -145 -43q-95 -58 -97 -158q-1 -30 15 -52q18 -27 53 -27q16 0 37 14.5t29 28.5q7 -1 7 -8
q0 -9 -9 -21q-48 -50 -101 -50q-88 0 -86 90q2 93 99 173q108 88 257 88q87 0 143 -35q62 -39 60 -107q-1 -70 -64 -123q-53 -45 -122 -60l-1 -1q28 -9 51 -34q20 -21 20 -51q0 -19 -8 -47q-16 -44 -40 -131q-2 -9 -2 -17q0 -27 25 -27q27 0 62 27q44 33 82 95z" />
    <glyph glyph-name="S" unicode="S" horiz-adv-x="435" 
d="M500 632q-8 -26 -28 -47q-6 20 -27 35t-49 15q-57 0 -88 -29q-26 -24 -26 -58q0 -29 27 -67l75 -89q41 -52 41 -107q0 -108 -79 -194q-86 -94 -211 -94q-37 0 -65.5 30.5t-28.5 70.5q0 66 51 135q5 1 9 -5q-32 -51 -32 -93q0 -37 29 -61t72 -24q83 0 144.5 49.5
t61.5 123.5q0 38 -26 79q-15 25 -49 64q-39 44 -51 61q-21 37 -21 73q0 54 56 116q63 70 140 70q40 0 67 -27q12 -12 8 -27z" />
    <glyph glyph-name="T" unicode="T" horiz-adv-x="413" 
d="M834 672q5 3 9 -3t-1 -10q-95 -83 -231 -83q-35 0 -72 6q-37 -17 -63 -84l-34 -107q-31 -98 -64 -168q-43 -92 -109 -166q-70 -79 -120 -85q-51 -5 -56 40q-2 21 19 52q35 -33 77 -31q63 3 113 139l89 288q19 54 34 74q21 27 71 52q-18 2 -110 19q-67 12 -111 12
q-27 0 -51 -4q-37 -5 -63 -43t-29 -84q-4 -52 19 -88q24 -39 68 -39q14 0 31 4l3 -5q-31 -21 -85 -21q-49 0 -74 38q-21 32 -19 72q8 120 111 176q71 39 163 39q55 0 170 -19q112 -19 171 -18q86 2 144 47z" />
    <glyph glyph-name="U" unicode="U" horiz-adv-x="609" 
d="M475 -8q-21 0 -38 20q-24 28 -22 85q0 15 11 90q-163 -194 -241 -194q-66 0 -59 102q3 57 55 200l80 223q7 26 7 48q0 67 -56 67q-97 0 -99 -110q0 -50 34 -50q31 0 61 36q13 -4 4 -18q-34 -48 -87 -48q-28 0 -46.5 17.5t-18.5 48.5q1 65 47 111q53 52 140 52
q33 0 60 -22q34 -29 34 -80q1 -41 -31 -126l-52 -138q-27 -78 -45 -142q-9 -35 -9 -61q0 -44 27 -44q41 0 103 60q57 54 109 135q40 134 69 205q41 103 93 172q20 26 42 26q5 0 9 -2q17 -8 13 -38q-16 -104 -150 -305q-15 -64 -21 -92q-10 -54 -11 -95q-2 -85 30 -85
q36 0 80 40q35 32 63 76q5 0 7 -10q3 -10 -1 -17q-35 -59 -89 -98t-102 -39z" />
    <glyph glyph-name="V" unicode="V" horiz-adv-x="560" 
d="M657 600q-1 -142 -69 -292q-58 -130 -144 -223q-82 -88 -132 -86q-84 3 -84 178q0 43 6 84q24 195 167 365q-23 -4 -77 -5.5t-80 -6.5q-87 -17 -97 -108q-9 -80 57 -95q13 -1 25 2l2 -9q-25 -18 -66 -18t-61 33q-16 26 -12 61q6 59 64 111q55 50 120 65q30 7 104 10
q64 2 94 13q3 -2 3 -7q-191 -170 -191 -482q0 -130 63 -130q57 0 121 100q53 83 94 207q38 113 38 171q0 74 -42 142q27 20 48 20q50 0 49 -100z" />
    <glyph glyph-name="W" unicode="W" horiz-adv-x="778" 
d="M886 601q-1 -138 -67 -288q-59 -131 -144 -225q-82 -90 -135 -89q-72 3 -80 168q-124 -172 -191 -169q-68 2 -68 147q0 50 9 115q24 195 167 365q-23 -4 -77 -5.5t-80 -6.5q-87 -17 -97 -108q-9 -81 57 -95q13 -1 25 1l2 -9q-25 -17 -66 -17t-61 32q-16 27 -12 62
q6 58 64 111q55 50 120 65q30 6 104 9q64 3 94 14q3 -2 3 -7q-173 -154 -190 -449q-2 -21 -2 -40q0 -123 46 -123q47 -1 152 158q3 112 39 216q31 90 77 150q42 56 72 56q29 0 29 -49q0 -105 -159 -337l-2 -29q-4 -69 15 -116t48 -48q57 0 120 101q53 83 95 206
q38 114 38 171q0 74 -42 142q27 20 48 20q49 0 49 -99zM639 531q5 23 0 37t-16 14q-18 0 -36 -31q-51 -92 -66 -239q97 128 118 219z" />
    <glyph glyph-name="X" unicode="X" horiz-adv-x="634" 
d="M778 605q0 -44 -31 -61l-5 2q-1 25 -19 42q-21 21 -56 21q-58 0 -106 -51t-75 -143l-9 -29q28 -4 48 -4q43 0 65 17q9 -8 8 -25q-3 -34 -59 -36q-26 -1 -74 7q-17 -69 -17 -129q0 -87 38 -142q31 -44 63 -44q71 0 124 116q3 6 11 0q-6 -46 -44 -90q-49 -57 -120 -57
q-69 0 -103 69q-25 52 -25 128q0 28 4 49l-6 1q-75 -136 -145.5 -193.5t-160.5 -57.5q-32 0 -49.5 26.5t-17.5 64.5q-1 72 36 114q7 -1 6 -5q-9 -25 -9 -52q0 -92 87 -92t167 104q73 94 92 199q-61 3 -97 -20q-11 9 -11 22q0 20 23 31q37 17 93 10q3 20 3 45
q0 67 -26.5 114.5t-67.5 47.5q-60 0 -110 -65q-12 13 -10 17q80 107 143 107t98 -65q32 -57 27 -130q46 75 108 129q74 66 139 66q34 0 54 -22q16 -17 16 -36z" />
    <glyph glyph-name="Y" unicode="Y" horiz-adv-x="580" 
d="M689 538q-2 -36 -30.5 -92.5t-69.5 -106.5q-55 -262 -201 -402q-108 -104 -209 -104q-62 0 -103 36q-47 42 -44 116q5 92 53 160q14 20 26 20q5 0 10 -2q-16 -18 -32 -57q-17 -42 -18 -70q-3 -53 22 -90q36 -52 120 -52q110 0 191 92q85 97 116 270l-2 2q-28 -29 -74 -54
q-52 -29 -87 -29q-41 0 -41 66q0 20 5 43l43 138q37 118 36 168q0 66 -67 66q-59 0 -104 -65q-36 -54 -38 -98q-4 -70 40 -70q30 0 75 44q10 -8 6 -12q-30 -38 -66 -63.5t-56 -25.5q-54 0 -50 86q4 87 77.5 165.5t160.5 78.5q91 0 91 -99q0 -23 -6 -61q-3 -17 -29 -95
q-26 -83 -34.5 -121.5t-8.5 -51.5q0 -35 31 -35q43 0 104 63q12 35 22 88q14 67 20 89q11 44 32 75q27 38 58 38q32 0 31 -48zM654 557q-29 8 -50 -145q-1 -4 -1 -6q1 -1 2 0q2 1 4 5q56 72 56 125q0 18 -11 21z" />
    <glyph glyph-name="Z" unicode="Z" horiz-adv-x="787" 
d="M786 192q-8 -71 -87 -156q-56 -60 -103 -60q-79 1 -316 112q-111 -98 -190 -98q-39 0 -64.5 21.5t-25.5 59.5t31 65q35 30 93 30q36 0 163 -35q80 86 165 213l143 227q-26 2 -61 13q-29 10 -59 19q-35 13 -96 27q-24 0 -35 -14q-41 -52 -50 -148q-6 -5 -12 1q-5 14 -5 32
q0 30 15 69q42 105 117 105q45 0 110 -20q102 -33 106 -34q48 87 101 87q23 0 23 -24q0 -27 -39 -68q-29 -30 -76 -40q-197 -328 -320 -457q52 -22 155 -49q108 -27 147 -27q62 0 102 53q21 28 52 106q4 1 10.5 -1.5t5.5 -8.5zM254 95v5q-102 36 -135 36q-37 0 -61 -15
q-28 -16 -28 -46q0 -53 64 -53q70 0 160 73z" />
    <glyph glyph-name="bracketleft" unicode="[" horiz-adv-x="288" 
d="M173 214q-24 -92 -24 -180q0 -141 54 -234q-11 -2 -17 -2q-8 0 -14 7q-12 17 -13 18q-31 31 -50 99q-21 72 -21 158q0 80 19 156q50 208 229 384q28 27 59 27q12 0 25 -3q-66 -44 -138 -169t-109 -261z" />
    <glyph glyph-name="bracketright" unicode="]" horiz-adv-x="224" 
d="M104 231q24 91 24 179q0 141 -55 235q11 3 17 3q9 0 14 -8l14 -18q30 -31 50 -99q21 -72 21 -158q0 -79 -19 -156q-50 -208 -229 -383q-30 -29 -59 -29q-12 0 -25 5q66 43 138 168.5t109 260.5z" />
    <glyph glyph-name="asciicircum" unicode="^" horiz-adv-x="500" 
d="M262 382q8 -16 22 -52q-11 -8 -13 -8q-12 15 -25 29l-28 32l-79 -61q-13 8 -6 16q81 98 94 97q9 -1 35 -53z" />
    <glyph glyph-name="underscore" unicode="_" horiz-adv-x="500" 
d="M0 -125v50h500v-50h-500z" />
    <glyph glyph-name="grave" unicode="`" horiz-adv-x="174" 
d="M305 267l-4 -11q-100 41 -100 74q0 18 19 18q12 0 31 -26q26 -36 54 -55z" />
    <glyph glyph-name="a" unicode="a" horiz-adv-x="265" 
d="M295 103q-21 -41 -67 -74.5t-77 -33.5q-25 0 -25 34q0 9 2 22l-46 -31q-34 -21 -56 -21q-40 0 -40 40q0 65 83 140q79 72 134 72q29 0 30 -23q0 -12 -10.5 -22.5t-21.5 -10.5q-11 10 -31 10q-36 1 -73.5 -42.5t-42.5 -87.5q-4 -27 18 -27q10 0 47 27q23 30 77 81
q18 5 26 0q3 -3 -4 -20l-20 -41q-12 -28 -12 -43q0 -11 11 -11q16 1 42.5 24.5t46.5 54.5q14 -8 9 -17z" />
    <glyph glyph-name="b" unicode="b" horiz-adv-x="230" 
d="M328 552q17 2 17 -17q0 -45 -75 -153q-78 -110 -147 -155q-50 -105 -52 -149q-1 -18 10 -28q20 -2 50 38q21 28 31 51q-11 24 -11 47q0 24 11 40t26 16q28 1 29 -38q1 -15 -5 -33q-5 -14 -9 -28q3 -52 27 -52t44 43q13 -9 1 -33q-18 -34 -54 -33q-30 1 -45 50
q-20 -39 -54 -75q-43 -46 -74 -47q-39 -2 -39 53q0 60 57 181t129 213q79 103 133 109zM307 507q-24 0 -87 -98q-53 -84 -76 -138q34 25 98 111q67 90 67 118q0 5 -2 7z" />
    <glyph glyph-name="c" unicode="c" horiz-adv-x="197" 
d="M228 106q-4 -22 -40 -53q-63 -54 -115 -54q-70 0 -69 66q1 54 58.5 110t111.5 56q27 0 27 -23q0 -26 -32 -38l-4 1q-24 22 -40 22q-20 0 -40 -26q-21 -29 -21 -65q0 -61 50 -61q56 0 106 82q11 -2 8 -17z" />
    <glyph glyph-name="d" unicode="d" horiz-adv-x="274" 
d="M438 486q-57 -59 -139 -204q-78 -137 -101 -210q-3 -11 -3 -19q0 -11 11 -11q16 0 42.5 23.5t46.5 55.5q13 -7 8 -17q-17 -38 -64.5 -73t-78.5 -35q-25 0 -25 33q0 10 2 23l-46 -32q-34 -21 -56 -21q-40 0 -40 41q0 66 69.5 128.5t133.5 54.5q9 -2 15 -4q136 277 197 277
q25 0 28 -10zM200 192q-17 5 -25 5q-33 0 -65 -26q-39 -34 -47 -95q-4 -27 18 -28q32 0 76 51z" />
    <glyph glyph-name="e" unicode="e" horiz-adv-x="202" 
d="M234 110q-1 -25 -51 -65q-56 -46 -113 -46q-65 0 -65 62q0 59 56 114.5t112 55.5q28 0 28 -30q0 -32 -39.5 -64t-91.5 -47q-3 -17 9 -33t36 -16q60 0 111 82q9 -4 8 -13zM149 182q0 16 -16 16q-21 0 -45.5 -34t-20.5 -53q29 -2 57 26q25 25 25 45z" />
    <glyph glyph-name="f" unicode="f" horiz-adv-x="206" 
d="M323 396q-32 -65 -83 -129q-54 -68 -104 -99l-39 -85q23 -21 49 -21q43 0 80 56q9 -6 7 -22q-41 -60 -97 -60q-15 0 -54 10q-29 -71 -83 -225q-3 -11 -18 -15.5l-29 -8.5q-5 0 -7.5 3t-2.5 8q6 37 46 143q35 94 46 115q0 4 -2 7q-23 34 -21 63q1 17 11 32t25 14q7 0 8 -4
q-2 -19 4 -55q13 34 39 83l32 62q38 77 96 139t89 60q24 -1 24 -22q0 -17 -16 -49zM293 443q-16 1 -60 -77q-40 -70 -77 -156q42 33 93 112.5t51 109.5q0 10 -7 11z" />
    <glyph glyph-name="g" unicode="g" horiz-adv-x="253" 
d="M286 104q-22 -45 -107 -81q-4 -6 -7 -11q-43 -100 -95 -175q-73 -106 -128 -106q-26 0 -24 37q3 61 61 129q53 62 135 114q6 16 19 48l-49 -33q-37 -22 -58 -22q-40 0 -40 40q0 63 82 138q80 71 135 71q29 0 29 -22q0 -13 -10 -23t-22 -10q-10 10 -30 10
q-36 1 -73.5 -42.5t-43.5 -86.5q-3 -27 18 -27q11 0 47 27q21 27 74 75q18 5 26 0q4 -3 -4.5 -21t-24.5 -58q-1 -5 -6 -21h4q54 16 87 77q10 -10 5 -27zM98 -25h-2q-112 -77 -143 -165q-6 -18 -6 -31q0 -19 13 -18q25 2 71 79q42 68 67 135z" />
    <glyph glyph-name="h" unicode="h" horiz-adv-x="267" 
d="M357 537q1 -34 -32 -88q-41 -69 -97 -124q-27 -26 -90 -76q-15 -12 -22.5 -29.5l-35.5 -81.5h7q22 28 60 58q42 33 61 32q15 0 15 -20q0 -12 -6 -30q-28 -78 -33 -111q-3 -23 8 -26q18 -6 52 26q30 27 46 56q14 -9 7 -21q-20 -39 -63.5 -70.5t-74.5 -31.5q-35 0 -35 42
q0 9 1 20q5 25 31 94q5 15 -5 15q-4 0 -9 -4q-44 -28 -92 -108q-35 -60 -49 -60h-18q-18 0 -6 27q235 536 356 536q23 0 24 -25zM314 520q-24 6 -93 -97q-62 -94 -75 -136q80 59 131 130q43 59 43 90q0 11 -6 13z" />
    <glyph glyph-name="i" unicode="i" horiz-adv-x="130" 
d="M121 245q-23 0 -23 27q0 14 10 27t24 13q22 0 22 -27q0 -14 -9.5 -27t-23.5 -13zM165 109q-17 -39 -62.5 -73t-81.5 -36q-29 -1 -29 32q0 28 25 85q21 47 41 77t62 26q6 -7 6 -6q-25 -32 -56 -103q-11 -26 -13 -44q-1 -10 3 -15.5t12 -5.5q34 1 84 80q11 -9 9 -17z" />
    <glyph glyph-name="j" unicode="j" horiz-adv-x="129" 
d="M121 250q-22 0 -22 27q0 14 10 27t24 13q22 0 22 -27q0 -14 -10 -27t-24 -13zM152 124q7 -10 7 -18t-14 -24q-43 -46 -113 -68q-41 -97 -96 -178q-77 -113 -134 -113q-26 0 -24 37q3 61 61 129q53 62 135 114l35 90q32 76 47 98q18 28 59 24l5 -6q-34 -44 -75 -163h4
q26 4 55.5 26t47.5 52zM-43 -33h-2q-112 -78 -143 -165q-6 -19 -6 -31q0 -19 12 -18q25 2 72 79q41 68 67 135z" />
    <glyph glyph-name="k" unicode="k" horiz-adv-x="266" 
d="M360 539q1 -34 -32 -88q-41 -69 -97 -124q-27 -26 -90 -76q-15 -12 -23 -31q-5 -13 -14 -34q44 46 85 46q36 0 37 -27q0 -18 -38.5 -36t-40.5 -35q42 -8 36 -46q-3 -12 -8 -39q-5 -23 12 -24q16 0 42 24q32 28 63 78q7 1 9 -8q2 -8 -4 -17q-68 -102 -145 -102
q-40 0 -40 32q0 2 17 65q8 29 -30 38l2 7q31 -1 51 7q26 12 26 34q0 18 -21 18q-46 0 -81 -77l-49 -107q-12 -16 -23 -16h-18q-18 0 -6 28q235 536 356 535q23 0 24 -25zM308 522q-24 6 -92 -97q-62 -94 -75 -136q79 60 131 130q43 60 43 90q0 11 -7 13z" />
    <glyph glyph-name="l" unicode="l" horiz-adv-x="177" 
d="M350 535q1 -47 -53 -136q-43 -72 -130 -157l-79 -73q-19 -61 -19 -85q0 -38 31 -37q25 1 55 25t51 62q3 -1 6.5 -9t1.5 -13q-36 -60 -93 -90q-45 -23 -89 -23q-31 0 -30 45q1 60 64 189q61 126 134 222q81 106 126 105q23 0 24 -25zM302 518q-28 7 -102 -112
q-68 -110 -90 -179q88 75 147 166q51 78 51 113q0 10 -6 12z" />
    <glyph glyph-name="m" unicode="m" horiz-adv-x="368" 
d="M395 97q-17 -31 -59.5 -64t-62.5 -33q-32 0 -31 47q0 17 7 46q8 37 10 49q-6 2 -15 -3q-20 -12 -47 -47q-29 -39 -41 -76q-5 -17 -19 -17h-14q-13 1 -11 21q15 45 34 117q-17 -5 -56 -45t-70 -87q-5 -6 -20 -7t-17 5q9 47 36 118q28 77 50 103q8 4 30 0q7 -2 6 -12
q-9 -23 -42 -118l2 -1q77 93 121 110q13 4 18 -4q7 -11 -1 -38q-3 -13 -13 -47l2 -2q21 28 55 60.5t55 40.5q13 4 18 -4q1 -16 0 -38q-1 -6 -9 -51t-8 -50q0 -19 16 -19q11 0 34.5 23.5t35.5 45.5q13 -11 6 -23z" />
    <glyph glyph-name="n" unicode="n" horiz-adv-x="261" 
d="M287 97q-14 -30 -58 -66t-67 -36q-31 0 -31 48q0 10 9 71q-10 3 -26 -11q-35 -32 -92 -96q-4 -7 -20 -7q-15 -1 -17 5q9 47 36 118q28 77 50 103q7 4 30 0q7 -2 6 -12q-11 -27 -45 -127l2 -2l53 52q43 39 66 48q13 4 18 -4q2 -16 0 -38q-1 -4 -5 -40q-4 -32 -4 -38
q0 -20 13 -20q16 1 43 32q20 22 31 39q12 -9 8 -19z" />
    <glyph glyph-name="o" unicode="o" 
d="M290 101q-19 -34 -54 -33q-34 1 -45 48q-20 -42 -53 -73q-45 -43 -98 -43q-45 0 -45 48q0 63 74 128q67 58 126 68q3 -1 6 -5q0 -8 -5 -9q-39 -10 -82 -47q-58 -49 -58 -107q0 -37 29 -37q25 0 56 35q26 31 42 65q-7 15 -7 35q0 36 24 36t24 -33q0 -23 -10 -44
q2 -43 31 -43q22 0 43 44q14 -9 2 -33z" />
    <glyph glyph-name="p" unicode="p" horiz-adv-x="260" 
d="M290 100q-52 -89 -175 -89q-19 -9 -33 -11q-34 -5 -59 15q-37 -91 -93 -217q-28 -21 -54 -13q-3 3 0 16l172 379q19 42 34 71q17 7 21 -4q2 -12 -1 -30q-6 -27 -7 -29l2 -2q36 46 79 45q46 0 46 -55q0 -35 -19.5 -73.5t-47.5 -63.5q73 -4 128 83q5 -3 7 -10q3 -7 0 -12z
M153 191q-6 3 -11 3q-10 0 -34 -22q-31 -29 -69 -126q9 -16 58 -15q27 11 47 53t20 74q0 28 -11 33z" />
    <glyph glyph-name="q" unicode="q" horiz-adv-x="265" 
d="M301 110q-17 -28 -109 -130q-78 -87 -113 -164q0 -1 -10 -23q-28 -21 -54 -14q-3 4 0 17l116 255h-1l-45 -31q-34 -21 -56 -21q-40 0 -40 41q0 64 81 135q76 68 132 68q29 0 29 -23q1 -12 -9.5 -22t-21.5 -11q-11 10 -31 11q-36 0 -71.5 -39.5t-40.5 -83.5q-4 -27 18 -27
q10 0 47 27q23 31 77 81q18 6 26 0q5 -4 -4 -20q-14 -26 -87 -193q23 29 81 90q46 48 73 90z" />
    <glyph glyph-name="r" unicode="r" horiz-adv-x="188" 
d="M217 99q-21 -33 -60 -66t-62 -33q-32 0 -32 35q0 46 34 133q1 4 -8.5 6.5l-16.5 4.5q-14 -28 -45 -81q-5 -7 -11 -4l-10 6q36 44 43 88q-5 22 -5 40q0 49 32 49q21 0 21 -23q-1 -12 -11 -34q-8 -11 2 -11q21 -7 52 -24q12 -10 5 -28q-19 -51 -19 -86q0 -21 11 -22
q25 -1 69 66q5 0 8.5 -6.5t2.5 -9.5z" />
    <glyph glyph-name="s" unicode="s" horiz-adv-x="184" 
d="M225 106q-24 -37 -90 -44q-40 -64 -109 -65q-24 0 -24 21q-1 21 17 32q12 7 58 18q9 2 6 15q-3 20 -5 39q-3 23 -16 27q-16 -29 -42 -63q-11 -14 -23 0q19 26 66 100q7 15 33 48q24 23 49 23q38 0 38 -22q0 -19 -20 -18q-12 13 -25 13q-14 0 -17 -16q-1 -20 12.5 -58.5
t13.5 -56.5q0 -9 -3 -17q49 1 75 51q10 -9 10 -15q0 -5 -4 -12zM80 52q-18 -3 -48 -15q-8 -7 -8 -14q0 -10 14 -10q8 0 17 4.5t17.5 15.5t7.5 19z" />
    <glyph glyph-name="t" unicode="t" horiz-adv-x="184" 
d="M272 312q-2 -23 -16 -29q-4 -2 -106 -10q-63 -132 -75 -201q-4 -24 20 -24q10 0 26 4q47 15 85 73q14 -5 8 -18q-25 -53 -85 -84q-49 -26 -92 -26q-39 0 -37 41q2 40 90 233q-13 0 -34 1q-14 1 -13 8t3 11q52 -4 60 10q30 72 72 134q14 17 41 17q20 0 23 -8
q-55 -87 -78 -146q9 -1 46 4q42 6 59 12q1 0 3 -2z" />
    <glyph glyph-name="u" unicode="u" horiz-adv-x="243" 
d="M273 101q-21 -37 -63.5 -70.5t-63.5 -33.5q-23 0 -23 31q0 21 10 48q-53 -48 -59 -52q-28 -22 -51 -22q-30 0 -30 37q0 25 25 75.5t54 77.5q17 12 47 5v-1q-18 -31 -48 -89q-14 -30 -14 -43q0 -11 8 -11q19 -2 60 50l50 69q12 16 26 16q9 0 18 -8q-17 -41 -28 -90
q-5 -23 -4 -31t8 -8q13 0 37 27q20 21 33 42q14 -10 8 -19z" />
    <glyph glyph-name="v" unicode="v" horiz-adv-x="251" 
d="M283 101q-18 -34 -54 -33q-33 1 -44 47q-9 -21 -31 -48q-26 -34 -58 -52q-24 -13 -38 -13q-21 0 -34 18.5t-13 49.5q0 27 11 56q30 87 73 86q7 0 22 -3q5 -1 2 -7q-51 -86 -52 -137q-1 -25 18 -25q14 0 34 21q37 38 54 84q-8 14 -7 35q0 41 26 41q25 0 25 -40
q0 -27 -10 -48q2 -43 31 -43q23 0 43 44q14 -9 2 -33z" />
    <glyph glyph-name="w" unicode="w" horiz-adv-x="374" 
d="M404 102q-18 -34 -54 -33q-30 1 -42 40q-9 -19 -28 -42q-27 -34 -59 -52q-23 -13 -37 -13q-39 0 -41 63q-51 -63 -90 -63q-43 0 -43 65q0 30 11 59q32 84 72 86q9 1 19 -3q5 -1 1 -7q-45 -78 -46 -137q-1 -22 14 -22q18 0 43 34q21 27 28 49q13 39 36 64q20 21 38 22
q8 0 15 -1q12 -2 9 -7q-51 -87 -52 -139q-1 -23 15 -23q11 0 27 15q38 35 57 84q-10 14 -10 40q1 41 26 41t26 -40q0 -27 -11 -48q3 -44 31 -44q23 0 44 45q14 -9 1 -33z" />
    <glyph glyph-name="x" unicode="x" horiz-adv-x="236" 
d="M254 80q-28 -36 -67 -59t-70 -23q-37 0 -40 58q-18 -24 -47.5 -42t-45.5 -18q-20 0 -19 25q1 23 17 38q13 12 29 13q4 -22 27 -22q18 0 32 30q12 25 13 47q2 44 -14 44q-12 0 -40 -24q-10 15 -8 17q41 52 79 52q36 0 44 -43q44 44 80 44q21 0 20 -23q-1 -25 -28 -28
q-2 16 -19 15q-19 0 -32 -12q-27 -28 -28 -76q-1 -54 31 -54q34 0 79 59q5 -2 7 -9q2 -6 0 -9z" />
    <glyph glyph-name="y" unicode="y" horiz-adv-x="236" 
d="M258 120q6 -8 6 -15q0 -9 -17 -27q-37 -38 -95 -62q-42 -99 -95 -178q-76 -113 -133 -113q-26 0 -24 37q3 61 61 129q53 62 135 114q12 28 32 83q-62 -63 -97 -63q-30 0 -30 40q0 18 8 38q11 28 34 65.5t38 49.5q25 12 45 7l2 -8q-53 -77 -69 -126q-7 -20 7 -23
q7 -1 24 12q21 15 92 118q16 23 42 14q-1 -5 -1 -14q-22 -53 -58 -150h4q57 24 89 72zM79 -31h-2q-112 -78 -143 -165q-6 -19 -6 -32q0 -18 12 -17q25 2 72 79q41 68 67 135z" />
    <glyph glyph-name="z" unicode="z" horiz-adv-x="236" 
d="M248 71q-38 -45 -80 -66q0 -57 -82 -162q-85 -109 -143 -109q-30 1 -28 37q2 53 68 113q11 11 125 100q1 6 1 13q0 45 -27 44q-6 0 -12 -3q-2 -2 -3 -2l-4 5l78 106q-3 3 -12 9q-18 9 -26 9q-15 0 -42 -28q-23 -24 -44 -54q-11 7 -14 13q7 9 35 53q19 29 42 51
q18 17 37 16q12 0 36 -5t35 -4q3 0 9 5.5t9 5.5q3 -1 6 -4q-60 -78 -86 -119q15 -3 29 -22q17 -22 14 -47q41 22 73 71q13 -5 13 -11t-7 -15zM102 -44q-37 -28 -108 -91q-46 -47 -46 -81q0 -19 17 -19q20 0 46 25q72 72 91 166z" />
    <glyph glyph-name="braceleft" unicode="{" horiz-adv-x="288" 
d="M173 214q-24 -92 -24 -180q0 -141 54 -234q-11 -2 -17 -2q-8 0 -14 7q-12 17 -13 18q-31 31 -50 99q-21 72 -21 158q0 80 19 156q50 208 229 384q28 27 59 27q12 0 25 -3q-66 -44 -138 -169t-109 -261z" />
    <glyph glyph-name="braceright" unicode="}" horiz-adv-x="224" 
d="M104 231q24 91 24 179q0 141 -55 235q11 3 17 3q9 0 14 -8l14 -18q30 -31 50 -99q21 -72 21 -158q0 -79 -19 -156q-50 -208 -229 -383q-30 -29 -59 -29q-12 0 -25 5q66 43 138 168.5t109 260.5z" />
    <glyph glyph-name="asciitilde" unicode="~" horiz-adv-x="174" 
d="M354 320l7 -6q-42 -46 -74 -46q-18 0 -42.5 7t-28.5 7q-7 0 -23 -6.5t-21 -11.5l-7 6q43 47 73 47q18 0 42 -7.5t28 -7.5q7 0 24 6.5t22 11.5z" />
    <glyph glyph-name="cent" unicode="&#xa2;" horiz-adv-x="197" 
d="M80 53l53 139q-4 1 -8 1q-20 0 -40 -26q-21 -29 -21 -65q0 -33 16 -49zM163 272l19 -6l-14 -35q15 1 24 -4t9 -19q0 -26 -32 -38l-4 1l-15 13l-54 -140q8 -3 18 -3q56 0 106 82q11 -2 8 -17q-4 -22 -40 -53q-58 -50 -109 -54l-20 -50l-16 6l17 45q-57 6 -56 65
q0 49 47 99q43 46 95 62z" />
    <glyph glyph-name="sterling" unicode="&#xa3;" horiz-adv-x="526" 
d="M531 420q-13 -6 -13 20q0 34 -46 34q-55 0 -106 -92q-9 -17 -30 -60h6h126q-8 -28 -35 -28h-51q-44 1 -60 1l-6 -12q-5 -11 -21 -39l136 1q-7 -29 -37 -29t-116 -1q-17 -33 -75 -132l79 -31q45 -17 82 -17q41 0 81 59q6 0 8 -4q-61 -100 -115 -100q-45 0 -94 26l-86 46
q-71 -73 -111 -73q-45 0 -43 37q1 31 23 51q28 24 78 22q16 0 49 -5q2 6 29.5 49t41.5 72h-97q1 8 4 22q3 8 14 8l92 -1l25 51q-57 -1 -103 -1q2 8 8 21q4 7 14 7h93q42 80 100 130.5t107 51.5q60 0 61 -62q0 -12 -3 -15.5t-9 -6.5zM86 80q-58 0 -60 -48q-1 -23 27 -23
q30 0 88 61q-21 10 -55 10z" />
    <glyph glyph-name="section" unicode="&#xa7;" horiz-adv-x="371" 
d="M430 579q-15 46 -73 46q-54 0 -84 -28q-25 -24 -25 -56q0 -29 25 -65l72 -84q39 -49 39 -101q0 -89 -61 -166q-64 -82 -164 -102q14 -14 22 -25q21 -35 21 -69q0 -50 -53 -108q-60 -66 -133 -66q-27 0 -68 39q-11 11 -7 24q8 23 25 42q7 -20 28 -39q25 -21 50 -21
q55 0 85 28q25 23 25 56q0 28 -26 65l-71 84q-39 49 -39 100q0 89 60 166q64 82 163 102q-8 9 -21 25q-20 36 -20 69q0 51 53 109q59 66 132 66q37 0 63 -25q11 -11 6 -24q-7 -23 -24 -42zM143 66q79 0 138 47.5t59 118.5q0 49 -44 104l-22 27q-80 0 -146 -50t-66 -120
q0 -43 20 -82q23 -45 61 -45z" />
    <glyph glyph-name="bullet" unicode="&#x2022;" horiz-adv-x="382" 
d="M219 111q-32 1 -52 23.5t-20 56.5q0 51 36 88.5t87 36.5q32 -1 52.5 -24t20.5 -57q0 -12 -3 -25q-12 -47 -45 -74t-76 -25z" />
    <glyph glyph-name="germandbls" unicode="&#xdf;" horiz-adv-x="340" 
d="M100 50q0 29 25 29q21 0 21 -25q0 -17 -8 -30q1 -14 20 -14q64 0 64 72q0 31 -21.5 79t-19.5 81q2 51 39 93q9 9 76 68q48 41 64 79q5 10 5 23q0 26 -18 26q-46 0 -96 -61q-37 -45 -62 -101l-259 -575q-18 -13 -43 -13l-16 2v16l221 462q72 149 94 184q75 115 155 115
q49 0 49 -58q0 -50 -38 -93l-71 -71q-38 -44 -38 -98q0 -29 24 -68.5t24 -67.5q0 -12 -3 -25q28 1 49 16.5t26 34.5q10 -8 10 -15q1 -24 -36 -41q-28 -12 -58 -15q-40 -64 -110 -65q-69 0 -69 56z" />
    <glyph glyph-name="acute" unicode="&#xb4;" 
d="M193 293l-4 11q28 19 54 55q19 26 31 26q19 0 19 -18q0 -33 -100 -74z" />
    <glyph glyph-name="dieresis" unicode="&#xa8;" horiz-adv-x="216" 
d="M140 292q-23 0 -23 27q0 15 10.5 28.5t24.5 13.5q23 0 23 -28q0 -15 -10 -28t-25 -13zM30 292q-23 0 -23 27q0 15 10 28.5t25 13.5q23 0 23 -28q0 -15 -10.5 -28t-24.5 -13z" />
    <glyph glyph-name="AE" unicode="&#xc6;" horiz-adv-x="981" 
d="M1132 679q2 1 4 -3q-46 -49 -65 -59q-23 -13 -71 -11q-40 4 -126 8q-31 -38 -50 -103l-30 -112q18 0 63 -3.5t69 -3.5q41 0 72 11q1 0 9 6q1 -3 3 -7l-39 -35q-23 -18 -43 -20q-41 -4 -148 5q-54 -178 -186 -282q41 0 121 -7t118 -7q36 0 67 5q27 5 46 29q5 7 16 20
q4 0 7 -5q-7 -30 -53 -78q-20 -21 -34 -27t-44 -6q-51 -1 -146 11q-100 12 -147 12q-26 0 -48 -2q-28 -2 -66 -30l-6 3q69 68 141 84q67 38 111 148q27 67 45 137l-78 4q-43 -1 -68 -21l-138 -152q-83 -86 -154 -134q-87 -60 -160 -61q-59 0 -99 33q-36 31 -36 65
q0 13 9 28.5t23 19.5q14 -39 53.5 -63.5t92.5 -22.5q110 2 240 130q59 59 124 152l107 161q44 67 125 122q-88 12 -153 -4q-100 -24 -99 -110q1 -30 17 -42q0 -4 -3 -5q-9 -2 -21 -2q-58 0 -51 48q5 37 63 83q44 35 82 52q69 32 227 32q25 0 96.5 -5.5t112.5 -5.5q37 0 68 4
q10 2 30 16zM736 402l32 114q23 63 68 95q-8 2 -16 2q-40 0 -78 -39q-45 -45 -153 -205q83 39 147 33z" />
    <glyph glyph-name="Oslash" unicode="&#xd8;" horiz-adv-x="532" 
d="M116 14q-25 -34 -38 -59q-18 3 -18 17q0 13 16 34l18 24q-54 50 -54 146q0 120 71 251q77 141 191 204q71 39 111 39q14 0 15 -6q-122 -46 -174 -97q-70 -68 -111 -169q-39 -97 -39 -186q1 -84 34 -123l344 467l25 36q-26 20 -61 20q-93 0 -172 -129q-29 -47 -48.5 -113
t-14.5 -95q-9 -5 -13 8q-6 24 -6 48q0 64 42 146q40 78 103 123q67 47 147 47q29 0 52 -12q21 34 34 60q23 -5 23 -26q0 -19 -18 -50l-8 -11q29 -37 29 -106q0 -102 -66.5 -220.5t-163.5 -197.5q-104 -84 -197 -84q-28 0 -53 14zM391 372l-232 -301q28 -18 72 -17
q110 3 218 159q103 149 103 281q0 39 -17 68z" />
    <glyph glyph-name="ordfeminine" unicode="&#xaa;" horiz-adv-x="336" 
d="M317 325q-2 -11 5 -23t14 -12q17 0 27 8q6 4 19 33l11 -4q-22 -66 -66 -66q-9 0 -19 2t-20 15q-13 17 -13 41q-12 -11 -43.5 -33t-58.5 -22q-44 0 -44 61q0 71 60 127q56 54 117 54q14 0 32 -11t19 -18zM279 470q-37 1 -69.5 -44t-33.5 -90q-1 -19 8 -27.5t27 -5.5
q15 2 45 28q23 15 46 99q6 20 11 31q-12 9 -34 9z" />
    <glyph glyph-name="ordmasculine" unicode="&#xba;" horiz-adv-x="339" 
d="M345 438q-16 -183 -157 -183q-25 0 -41 19q-22 25 -18 69q6 70 55 121.5t106 48.5q35 -2 48 -33q9 -20 7 -42zM301 419q5 62 -37 62q-24 0 -52 -33q-31 -37 -35 -87q-5 -47 5 -58q12 -14 25 -14q34 0 62 40.5t32 89.5z" />
    <glyph glyph-name="ae" unicode="&#xe6;" horiz-adv-x="349" 
d="M373 123q9 -4 9 -13q-2 -25 -52 -65q-56 -46 -113 -46q-65 0 -65 62q0 4 1 10q-74 -72 -127 -72q-40 0 -40 40q0 65 83 140q79 72 134 72q29 0 30 -23q9 14 18 20q14 8 26 0q7 -6 1 -15l-11 -13l1 -1q28 12 52 12q28 0 28 -30q0 -32 -41 -65q-37 -31 -90 -46
q-3 -17 9 -33t36 -16q60 0 111 82zM72 48q17 0 67 48q54 54 77 104q-8 -5 -15 -5q-11 10 -31 10q-36 1 -73.5 -42.5t-42.5 -87.5q-4 -27 18 -27zM280 198q-21 0 -45.5 -34t-20.5 -53q29 -2 57 26q25 25 25 45q0 16 -16 16z" />
    <glyph glyph-name="oslash" unicode="&#xf8;" 
d="M60 52l130 176q-42 -14 -81 -49q-53 -48 -53 -103q0 -15 4 -24zM176 178l-89 -118l-14 -19q5 -2 12 -2q25 0 56 35q26 31 42 65q-8 17 -7 39zM232 252l-32 -42q24 0 24 -33q0 -23 -10 -44q2 -43 31 -43q22 0 43 44q14 -9 2 -33q-19 -34 -54 -33q-34 1 -45 48
q-20 -41 -52 -72q-44 -43 -96 -44q-18 -26 -29 -45q-10 3 -10 12q0 11 15 30l3 5q-27 10 -27 46q0 63 74 128q67 58 126 68q3 0 5 -2l22 30q4 7 12 7q14 0 -2 -27z" />
    <glyph glyph-name="questiondown" unicode="&#xbf;" horiz-adv-x="371" 
d="M389 402h3q0 -1 2 -2q0 -50 -68 -92l-125 -76q-67 -53 -67 -128q0 -36 25 -56.5t61 -20.5q30 0 44 8q11 6 30 29l17 -5q-6 -32 -49 -51q-36 -16 -73 -16q-51 0 -85 30q-37 31 -37 83q0 92 59 139q28 23 125 60q83 32 114 72q20 26 24 26zM416 533q26 0 26 -31
q0 -16 -11.5 -31t-27.5 -15q-26 0 -26 31q0 16 11.5 31t27.5 15z" />
    <glyph glyph-name="exclamdown" unicode="&#xa1;" horiz-adv-x="262" 
d="M215 333q14 35 36 56q12 -2 13 -4l-1 -12q-1 -18 -22 -63q-64 -140 -105 -247q-27 -69 -42 -80q-1 -1 -34 -1q-12 0 -12 12t12 37zM294 527q25 0 25 -31q0 -16 -11 -31t-28 -15q-25 0 -25 31q0 16 11.5 31t27.5 15z" />
    <glyph glyph-name="guillemotleft" unicode="&#xab;" horiz-adv-x="289" 
d="M297 200q-13 -22 -32 -39l-51 -38l20 -41q10 -23 10 -39q0 -8 -2 -15q-3 -14 -18 -20q-15 36 -50 107q-8 12 6 22q69 48 120 96q7 -17 -3 -33zM187 204q-13 -21 -37 -40.5l-47 -36.5l21 -43.5t10 -37.5q0 -7 -2 -14q-4 -14 -18 -21l-23 52q-18 40 -28 56q-7 11 6 21
q75 54 121 96q7 -15 -3 -32z" />
    <glyph glyph-name="guillemotright" unicode="&#xbb;" horiz-adv-x="268" 
d="M25 47q14 22 32 40q16 10 53 38l-20 41.5t-10 38.5q0 26 18 35q15 -37 51 -107q7 -13 -6 -22q-70 -49 -121 -96q-7 16 3 32zM135 43q13 22 39 43q24 17 47 35l-20.5 42.5t-10.5 37.5q0 7 2 14q5 16 16 21l24 -52q18 -40 27 -55q8 -12 -6 -22q-74 -53 -120 -96q-8 16 2 32
z" />
    <glyph glyph-name="ellipsis" unicode="&#x2026;" horiz-adv-x="424" 
d="M75 -6q-26 0 -26 31q0 17 11.5 31.5t27.5 14.5q26 0 26 -30q0 -17 -11.5 -32t-27.5 -15zM208 -4q-26 0 -26 30q0 17 11.5 32t27.5 15q26 0 26 -31q0 -17 -11.5 -31.5t-27.5 -14.5zM342 -6q-26 0 -26 31q0 17 11.5 31.5t27.5 14.5q25 0 25 -30q0 -17 -11 -32t-27 -15z" />
    <glyph glyph-name="OE" unicode="&#x152;" horiz-adv-x="803" 
d="M809 260q2 -17 1 -35q-4 -87 -95.5 -159.5t-201.5 -72.5q-127 0 -174 79q-96 -79 -182 -79q-51 0 -84 45t-33 115q0 108 65 227q69 128 173 185q64 35 100 35q13 0 14 -5q-111 -42 -158 -89q-63 -61 -101 -153q-35 -87 -35 -168q1 -146 115 -143q55 1 116 52
q-13 32 -11 69q4 82 61 148q53 61 128 87q4 23 5 44q-7 -1 -15 -1q-35 0 -65 19q-40 24 -38 69q0 11 4 23q-79 -12 -146 -121q-26 -43 -43.5 -103t-13.5 -86q-8 -5 -12 8q-5 21 -5 43q0 58 38 132q67 132 191 152q32 66 111 95q7 1 15 -5q-4 -6 -10 -10q-33 -19 -46 -30
q-24 -21 -33 -47q86 -2 98 -102q7 1 10 2q7 82 83 146q67 58 128 58q40 0 38 -39q-2 -36 -66 -90q-52 -43 -117 -77q4 -28 24 -49q24 8 40 8q22 0 35.5 -6t12.5 -18q-1 -38 -69 -39q-20 0 -50 18q-16 9 -23 7q-16 -4 -51 -14q-28 -134 -139 -256q18 -48 61 -76t98 -28
q69 0 134 47t87 108q10 30 17 85q7 9 14 -5zM735 652q-31 0 -66 -41q-39 -45 -48 -110q51 23 89 59q40 40 42 75q1 17 -17 17zM553 451l-9 -3v0q0 -17 -3 -40q12 5 33 12q0 1 -6 21q-4 13 -15 10zM439 549q-2 -32 20 -52q19 -18 51 -21q-11 63 -71 75v-2zM388 196
q-1 -20 2 -39q81 100 111 214q-107 -52 -113 -175z" />
    <glyph glyph-name="oe" unicode="&#x153;" horiz-adv-x="351" 
d="M375 123q9 -4 8 -13q-1 -25 -51 -65q-57 -46 -114 -46q-61 0 -64 58q-56 -57 -114 -57q-45 0 -45 48q0 61 48 117q65 76 131 76q44 0 44 -37q0 -11 -4 -24q54 51 107 51q29 0 29 -30q0 -32 -39.5 -64t-91.5 -47q-3 -17 8.5 -33t36.5 -16q60 0 111 82zM80 39
q32 0 69.5 49.5t42.5 109.5q2 20 -20 20q-51 0 -97 -78q-19 -32 -19 -64q0 -37 24 -37zM282 198q-21 0 -45.5 -34t-20.5 -53q29 -2 56 26q25 25 25 45q0 16 -15 16z" />
    <glyph glyph-name="endash" unicode="&#x2013;" horiz-adv-x="318" 
d="M282 283q8 -8 8 -22q0 -32 -107 -34q-123 -2 -138 -12q-11 10 -11 23q0 24 57 30q21 3 112 4q67 1 79 11z" />
    <glyph glyph-name="emdash" unicode="&#x2014;" horiz-adv-x="420" 
d="M386 279q8 -8 8 -22q0 -32 -149 -32h-44q-30 1 -43 1q-83 0 -99 -11q-11 10 -11 23q0 32 160 32q14 0 42 -1h40q83 0 96 10z" />
    <glyph glyph-name="quotedblleft" unicode="&#x201c;" horiz-adv-x="349" 
d="M343 391q0 -52 57 -64l3 6q-23 26 -23 47q0 18 21 33.5t22 31.5q2 23 -19 23q-17 0 -33 -12q-28 -22 -28 -65zM248 387q0 -52 57 -64l3 6q-23 26 -23 47q0 18 21 33.5t22 31.5q2 23 -19 23q-17 0 -33 -12q-28 -22 -28 -65z" />
    <glyph glyph-name="quotedblright" unicode="&#x201d;" horiz-adv-x="265" 
d="M174 330l-1 6q46 35 47 62q0 8 -10.5 19t-10.5 21q0 12 9 22.5t22 10.5q5 0 11 -2q25 -9 25 -38q0 -38 -27 -66t-65 -35zM267 328l-1 6q47 35 47 62q1 8 -10 19t-11 21q0 12 9 22.5t22 10.5q5 0 12 -2q24 -9 24 -38q0 -38 -27 -66t-65 -35z" />
    <glyph glyph-name="quoteleft" unicode="&#x2018;" horiz-adv-x="261" 
d="M248 387q0 -52 57 -64l3 6q-23 26 -23 47q0 18 21 33.5t22 31.5q2 23 -19 23q-17 0 -33 -13q-28 -21 -28 -64z" />
    <glyph glyph-name="quoteright" unicode="&#x2019;" horiz-adv-x="169" 
d="M269 437q-15 -28 -42 -50q-22 -18 -32 -18q-6 0 -2 8q6 6 24 34q7 14 7 27q0 10 -5.5 22.5t-3.5 16.5q5 9 27 15q16 4 24 4q15 0 15 -19q0 -18 -12 -40z" />
    <glyph glyph-name="fraction" unicode="&#x2044;" horiz-adv-x="404" 
d="M64 -19q-55 -73 -75 -110q-26 3 -26 21q0 16 17 38l406 551q60 82 90 141q30 -5 30 -31q0 -21 -18 -51.5t-424 -558.5z" />
    <glyph glyph-name="currency" unicode="&#xa4;" horiz-adv-x="408" 
d="M412 411l-6 33q-6 12 -34 12q-14 0 -37 -3q-83 -8 -150 -147q66 1 181 0q-8 -32 -38 -32q-19 0 -70 1h-89l-19 -49q74 -1 178 1q-6 -32 -41 -32h-63q-46 1 -83 1q-7 -25 -7 -48q0 -48 28 -80q25 -29 54 -29q66 0 98 20l46 42q4 -7 4 -15q0 -21 -21 -38q-56 -48 -138 -48
q-64 0 -100 33.5t-36 95.5q0 30 9 64h-64l5 25q4 9 16 9l52 -1q6 22 18 49q-11 -1 -68 -1q7 22 8 24q5 8 17 8h58q42 78 118 133t134 54q74 -2 75 -42q1 -23 -35 -40z" />
    <glyph glyph-name="fi" unicode="&#xf001;" horiz-adv-x="338" 
d="M293 443q-16 1 -60 -77q-40 -70 -77 -156q42 33 93 112.5t51 109.5q0 10 -7 11zM373 109q-17 -39 -62.5 -73t-81.5 -36q-29 -1 -29 32q0 12 6 32q-32 -28 -70 -28q-15 0 -54 10q-29 -71 -83 -225q-3 -11 -18 -15.5l-29 -8.5q-5 0 -7.5 3t-2.5 8q6 37 46 143q35 94 46 115
q0 4 -2 7q-23 34 -21 63q1 17 11 32t25 14q7 0 8 -4q-2 -19 4 -55q13 34 39 83l32 62q38 77 96 139t89 60q24 -1 24 -22q0 -17 -16 -49q-32 -65 -83 -129q-54 -68 -104 -99l-39 -85q23 -21 49 -21q42 0 79 53q20 46 42 80q19 29 61 25q6 -7 6 -6q-25 -32 -56 -103
q-11 -26 -13 -44q-1 -10 3 -15.5t12 -5.5q34 1 84 80q11 -9 9 -17zM331 245q-23 0 -23 27q0 14 10 27t24 13q22 0 22 -27q0 -14 -9.5 -27t-23.5 -13z" />
    <glyph glyph-name="fl" unicode="&#xf002;" horiz-adv-x="359" 
d="M293 443q-16 1 -60 -77q-40 -70 -77 -156q42 33 93 112.5t51 109.5q0 10 -7 11zM498 455q1 -45 -41 -116q-37 -61 -112 -133l-69 -62q-16 -52 -16 -73q0 -32 26 -31q50 2 90 74q3 -1 6 -8t1 -11q-58 -96 -155 -96q-26 0 -25 38q0 12 3 27q-32 -28 -70 -28q-15 0 -54 10
q-29 -71 -83 -225q-3 -11 -18 -15.5l-29 -8.5q-5 0 -7.5 3t-2.5 8q6 37 46 143q35 94 46 115q0 4 -2 7q-23 34 -21 63q1 17 11 31.5t25 14.5q7 0 8 -4q-2 -19 4 -55q13 34 39 83l32 62q38 77 96 139t89 60q24 -1 24 -22q0 -17 -16 -49q-32 -65 -83 -129q-54 -68 -104 -99
l-39 -85q23 -21 49 -21q38 0 72 44q38 113 122 238q90 133 138 132q20 0 20 -21zM457 440q-20 3 -82 -93.5t-79 -150.5q73 63 124 140q43 66 43 95q0 8 -6 9z" />
    <glyph glyph-name="periodcentered" unicode="&#xb7;" horiz-adv-x="175" 
d="M97 88q-26 0 -26 31q0 17 11.5 31.5t27.5 14.5q26 0 26 -30q0 -17 -11.5 -32t-27.5 -15z" />
    <glyph glyph-name="periodcentered" unicode="&#x2219;" horiz-adv-x="175" 
d="M97 88q-26 0 -26 31q0 17 11.5 31.5t27.5 14.5q26 0 26 -30q0 -17 -11.5 -32t-27.5 -15z" />
    <glyph glyph-name="quotesinglbase" unicode="&#x201a;" horiz-adv-x="150" 
d="M16 -80l-1 6q46 35 47 62q0 8 -10.5 19t-10.5 21q0 12 9 22.5t22 10.5q5 0 11 -2q25 -9 25 -38q0 -38 -27 -66t-65 -35z" />
    <glyph glyph-name="perthousand" unicode="&#x2030;" horiz-adv-x="819" 
d="M476 538q-17 -29 -423 -557q-20 -26 -60 -88q-21 2 -21 16q0 13 23 44l391 528q60 82 90 141q24 -4 24 -24q0 -19 -24 -60zM46 223q-26 0 -40 11q-27 29 -27 97q0 83 59 149q55 62 116 62q36 0 55 -27.5t19 -64.5q0 -85 -47 -152q-52 -75 -135 -75zM124 507
q-31 0 -63 -44q-36 -49 -36 -109q0 -47 14 -76q9 -18 25 -18q45 -1 81 52t36 114q0 81 -57 81zM356 -7q-26 0 -40 10q-27 29 -27 98q0 83 59 148q55 63 116 63q36 0 56 -30q18 -26 18 -62q0 -86 -47 -152q-52 -75 -135 -75zM434 277q-31 0 -63 -44q-36 -49 -36 -110
q0 -46 14 -75q8 -18 24 -19q45 -1 81.5 52.5t36.5 114.5q0 81 -57 81zM656 -7q-26 0 -40 10q-27 29 -27 98q0 83 59 148q55 63 116 63q36 0 56 -30q18 -26 18 -62q0 -86 -47 -152q-52 -75 -135 -75zM734 277q-31 0 -63 -44q-36 -49 -36 -110q0 -46 14 -75q8 -18 24 -19
q45 -1 81.5 52.5t36.5 114.5q0 81 -57 81z" />
    <glyph glyph-name="dotlessi" unicode="&#x131;" horiz-adv-x="130" 
d="M165 109q-17 -39 -62.5 -73t-81.5 -36q-29 -1 -29 32q0 28 25 85q21 47 41 77t62 26q6 -7 6 -6q-25 -32 -56 -103q-11 -26 -13 -44q-1 -10 3 -15.5t12 -5.5q34 1 84 80q11 -9 9 -17z" />
    <glyph glyph-name="circumflex" unicode="&#x2c6;" horiz-adv-x="500" 
d="M360 381q6 -18 12 -48q-11 -9 -12 -9l-33 63l-102 -65q-11 8 -2 16q21 19 65 54q52 43 58 42q2 0 14 -53z" />
    <glyph glyph-name="tilde" unicode="&#x2dc;" horiz-adv-x="174" 
d="M354 320l7 -6q-42 -46 -74 -46q-18 0 -42.5 7t-28.5 7q-7 0 -23 -6.5t-21 -11.5l-7 6q43 47 73 47q18 0 42 -7.5t28 -7.5q7 0 24 6.5t22 11.5z" />
    <glyph glyph-name="ring" unicode="&#x2da;" horiz-adv-x="269" 
d="M304 282q-19 0 -30 14t-8 32q4 17 29.5 42.5t41.5 25.5q3 0 25 -15q14 -10 13 -28q-6 -29 -24 -49q-21 -22 -47 -22zM353 355q-2 3 -4 8q-1 2 -9 9q-26 -1 -48 -37q-6 -10 -4 -21q2 -9 11 -13q37 6 52 41q4 9 2 13z" />
    <glyph glyph-name="Lslash" unicode="&#x141;" horiz-adv-x="403" 
d="M443 9h-3q-17 20 -54 21q-30 0 -66 -17.5t-45 -17.5q-29 1 -28 48q0 19 6 49q9 41 10 50q-6 2 -15 -3q-20 -12 -47 -47q-29 -39 -41 -76q-5 -17 -19 -17h-14q-13 1 -11 21q15 45 34 117q-17 -5 -56 -45t-70 -87q-5 -6 -20 -7t-17 5q9 47 36 118q28 77 50 103q8 4 30 0
q7 -2 6 -12q-9 -23 -42 -118l2 -1q77 93 121 110q13 4 18 -4q7 -11 -1 -38q-3 -13 -13 -47l2 -2q21 28 55 60.5t55 40.5q13 4 18 -4q2 -17 0 -38q-2 -19 -10 -58q-6 -32 -6 -48q0 -24 15 -24q9 0 26 5.5t46 13.5q13 3 26 3q37 0 37 -22q0 -6 -2 -10.5t-13 -21.5z" />
    <glyph glyph-name="lslash" unicode="&#x142;" horiz-adv-x="255" 
d="M286 103q-21 -39 -63.5 -71t-73.5 -32q-36 0 -36 42q0 9 2 20q3 21 32 97q5 14 -5 14q-23 0 -67 -65q-35 -51 -49 -84q-82 -198 -96 -226q-28 -20 -54 -13q-3 3 0 16l172 380q18 39 43 87q4 1 12 0t9 -4q5 -22 -16 -76l-22 -47l4 -1q22 29 60 59q42 33 61 32
q15 -1 15 -20q0 -12 -6 -30q-30 -85 -34 -114q-4 -23 7 -26q18 -5 54 29q32 30 43 54q14 -9 8 -21z" />
    <glyph glyph-name="Scaron" unicode="&#x160;" horiz-adv-x="596" 
d="M645 401q5 1 13 -7q-51 -41 -72 -113l-35 -130q-48 -134 -154 -221q-98 -81 -190 -81q-83 0 -136 53t-53 143q0 92 66 165.5t159 73.5q70 0 92 -51q8 -18 3 -28q-4 -4 -7 -4q-5 0 -10 14l-7 21q-18 27 -67 27q-66 0 -126.5 -67t-60.5 -149q0 -175 148 -175q91 0 170 82
q42 44 72 112q16 38 44 128q27 84 47 127q-23 -12 -66 -13q-35 0 -55 37t-18 99q-26 -6 -49 -6q-34 0 -64 18q-40 24 -38 69q2 43 36.5 83t87.5 59q7 1 14 -5q-3 -5 -9 -9q-34 -23 -47 -37q-27 -30 -29 -71q-2 -35 29 -55q23 -16 51 -16q6 0 21 2q15 87 88 149q65 54 126 54
q40 0 38 -38q-3 -68 -189 -169q-5 -23 -5 -46q0 -85 49 -85q71 0 133 60zM592 647q-33 0 -68 -40q-40 -46 -50 -110q52 23 90 59q43 40 44 75q1 16 -16 16z" />
    <glyph glyph-name="scaron" unicode="&#x161;" horiz-adv-x="858" 
d="M809 520q53 0 49 -38q0 -2 -11 -56h-4q-5 26 -41 26q-67 0 -134 -64q-22 -21 -125 -148l-76 -93q43 -45 101.5 -73t111.5 -28q93 0 141 65q2 3 8 3q6 1 6 -5q1 -12 -15 -29q-32 -35 -91.5 -56.5t-127.5 -21.5q-62 0 -121 34q-43 24 -68 53q-63 -50 -106 -67
q-50 -21 -121 -21q-62 0 -117 44q-68 54 -68 143q0 84 64 155q72 80 196 106q3 80 69 157.5t139 77.5q66 0 66 -61q0 -44 -59 -101q-67 -65 -155 -81q16 -139 125 -277q39 30 109 131q49 70 90 116q96 109 165 109zM430 643q-49 0 -82.5 -52t-28.5 -126q71 14 113 56
q35 35 35 69q0 53 -37 53zM249 41q70 0 143 65q-110 127 -132 316q-77 -13 -129 -63q-60 -59 -60 -153q0 -69 48.5 -117t129.5 -48z" />
    <glyph glyph-name="Yacute" unicode="&#xdd;" horiz-adv-x="306" 
d="M327 9h-2q-18 20 -55 21q-30 0 -65.5 -17.5t-45.5 -17.5q-28 1 -28 48q0 10 9 71q-10 3 -26 -11q-35 -32 -92 -96q-4 -7 -20 -7q-15 -1 -17 5q9 47 36 118q28 77 50 103q7 4 30 0q7 -2 6 -12q-11 -27 -45 -127l2 -2l53 52q43 39 66 48q13 4 18 -4q2 -16 0 -38
q-1 -4 -5 -40q-4 -32 -4 -38q0 -24 16 -24q8 0 25 5.5t47 13.5q12 3 25 3q38 0 38 -22q0 -6 -2.5 -10.5t-13.5 -21.5z" />
    <glyph glyph-name="onehalf" unicode="&#xbd;" horiz-adv-x="545" 
d="M476 538q-17 -29 -423 -557q-20 -26 -60 -88q-21 2 -21 16q0 13 23 44l391 528q60 82 90 141q24 -4 24 -24q0 -19 -24 -60zM130 454q-52 -38 -86 -48q-13 -3 -24 5.5t-10 32.5q75 -8 169 91q9 10 44 13q-4 -5 -20 -38q-35 -74 -92 -263q16 1 35 2v-27q-69 2 -130 0v27
q22 -1 38 -1q37 80 76 206zM455 -12q-30 0 -57.5 15l-53.5 29q-44 -44 -71 -44q-16 0 -31 13t-15 29q1 22 19.5 38t53.5 16q9 -1 47 -15q106 98 108 163q2 40 -36 40q-20 0 -41 -23.5t-21 -50.5q-5 -2 -10 -2q-23 0 -21 14q4 33 41 67t78 34q61 0 59 -62q-2 -74 -125 -189
q22 -9 46.5 -18t45.5 -9t46 36q15 2 19 -11q-42 -70 -81 -70zM287 55q-28 0 -29 -22q0 -3 6.5 -9.5t11.5 -6.5q15 0 41 27q-23 11 -30 11z" />
    <glyph glyph-name="onequarter" unicode="&#xbc;" horiz-adv-x="545" 
d="M476 538q-17 -29 -423 -557q-20 -26 -60 -88q-21 2 -21 16q0 13 23 44l391 528q60 82 90 141q24 -4 24 -24q0 -19 -24 -60zM130 454q-52 -38 -86 -48q-13 -3 -24 5.5t-10 32.5q75 -8 169 91q9 10 44 13q-4 -5 -20 -38q-35 -74 -92 -263q16 1 35 2v-27q-69 2 -130 0v27
q22 -1 38 -1q37 80 76 206zM472 93q-11 -17 -25 -20q-7 -2 -32 -2l-24 -88q-4 -15 -40 -13q8 18 36 102l-102 6q-11 1 -35 -22q-5 -4 -13 -1t-8 13q39 37 211 226q9 10 21 10q-9 0 26 -1l-1 -13q-93 -88 -165 -169q25 -2 80 -2q6 20 10.5 40t34.5 11q-11 -30 -17 -51
q22 0 28 2q13 4 21 19l17 -10q-8 -14 -23 -37z" />
    <glyph glyph-name="onesuperior" unicode="&#xb9;" horiz-adv-x="223" 
d="M159 454q-53 -38 -87 -48q-12 -3 -22 4q-13 10 -12 34q75 -8 170 91q8 10 43 13q-3 -5 -19 -38q-36 -74 -93 -263q16 1 35 2v-27q-69 2 -130 0v27q22 -1 38 -1q37 80 77 206z" />
    <glyph glyph-name="threequarters" unicode="&#xbe;" horiz-adv-x="545" 
d="M496 538q-17 -29 -423 -557q-20 -26 -60 -88q-21 2 -21 16q0 13 23 44l391 528q60 82 90 141q24 -4 24 -24q0 -19 -24 -60zM492 93q-11 -17 -25 -20q-7 -2 -32 -2l-24 -88q-4 -15 -40 -13q8 18 36 102l-102 6q-11 1 -35 -22q-5 -4 -13 -1t-8 13q39 37 211 226q9 10 21 10
q-9 0 26 -1l-1 -13q-93 -88 -165 -169q25 -2 80 -2q6 20 10.5 40t34.5 11q-11 -30 -17 -51q22 0 28 2q13 4 21 19l17 -10q-8 -14 -23 -37zM169 420q32 -20 32 -57q0 -48 -47 -92.5t-105 -44.5q-25 0 -41 14.5t-15 33.5q2 17 21 43l15 -7q-3 -8 -3 -15q0 -31 47 -31
q39 0 62 27q17 20 19 41q1 17 -9 38.5t-26 23.5q-18 -10 -32 -10q-27 0 -26 17q1 13 22 21.5t39 8.5q8 0 14 -1q27 18 30 50q1 13 -6 20.5t-21 7.5q-18 0 -43 -25l-7 4q-5 3 -7 11q12 23 38 37q22 11 43 11q26 0 40.5 -15.5t12.5 -37.5q-4 -42 -47 -73z" />
    <glyph glyph-name="threesuperior" unicode="&#xb3;" horiz-adv-x="268" 
d="M210 420q33 -20 33 -57q0 -48 -47 -92.5t-105 -44.5q-25 0 -41 14.5t-15 33.5q1 17 21 43l15 -7q-4 -8 -4 -15q0 -31 48 -31q39 0 62 27q17 20 19 41q1 17 -9 38.5t-26 23.5q-18 -10 -32 -10q-27 0 -26 17q1 13 23 22q19 8 38 8q7 0 14 -1q27 18 29 50q1 13 -5.5 20.5
t-20.5 7.5q-19 0 -43 -25l-7 4q-5 3 -7 11q12 23 38 37q22 11 43 11q26 0 40.5 -15.5t12.5 -37.5q-4 -42 -48 -73z" />
    <glyph glyph-name="twosuperior" unicode="&#xb2;" horiz-adv-x="360" 
d="M276 218q-29 0 -56.5 15l-53.5 29q-44 -44 -71 -44q-16 0 -31.5 13t-14.5 29q1 22 19.5 38t52.5 16q9 -1 48 -15q106 98 108 163q1 40 -36 40q-20 0 -41 -23.5t-21 -50.5q-5 -2 -11 -2q-22 0 -20 14q4 33 41 67t78 34q61 0 59 -62q-3 -74 -125 -189q22 -9 44 -17
q27 -10 47 -10q22 0 47 36q15 2 19 -11q-43 -70 -82 -70zM109 285q-28 0 -29 -22q0 -3 6.5 -9.5t11.5 -6.5q15 0 41 27q-23 11 -30 11z" />
    <glyph glyph-name="brokenbar" unicode="&#xa6;" horiz-adv-x="222" 
d="M213 -175v350h20v-350h-20zM213 325v350h20v-350h-20z" />
    <glyph glyph-name="minus" unicode="&#xad;" horiz-adv-x="374" 
d="M296 283q8 -8 8 -22q0 -32 -107 -34q-123 -2 -138 -12q-11 10 -11 23q0 24 57 30q21 3 112 4q67 1 79 11z" />
    <glyph glyph-name="minus" unicode="&#x2212;" horiz-adv-x="374" 
d="M296 283q8 -8 8 -22q0 -32 -107 -34q-123 -2 -138 -12q-11 10 -11 23q0 24 57 30q21 3 112 4q67 1 79 11z" />
    <glyph glyph-name="multiply" unicode="&#xd7;" horiz-adv-x="600" 
d="M360 145l-112 111l15 16l112 -112l112 112l15 -16l-112 -111l112 -111l-15 -16l-112 114l-112 -114l-15 16z" />
    <glyph glyph-name="Adieresis" unicode="&#xc4;" horiz-adv-x="618" 
d="M839 664q-63 -21 -107 -90q-37 -57 -90 -188q-71 -177 -75 -291q-1 -30 5 -45t19 -15q25 1 64 43q36 39 65 92q7 -2 9 -10q2 -7 -1 -12q-31 -62 -80 -103q-52 -42 -110 -51q-43 2 -42 76q0 62 23 140q6 21 48 139l-5 3l-71 -7l-88 -123q-53 -73 -98 -119
q-111 -115 -185 -115q-79 0 -79 60q0 28 15 50h3q32 -45 93 -45q73 0 151 82q33 35 78 103q57 87 71 106q-44 3 -84 5q-7 4 -1 8q39 27 108 20q118 190 233 253q-53 -1 -103 3q-54 4 -71 4q-78 0 -125 -43q-42 -38 -42 -90q0 -57 63 -57q9 0 20 1v-1q-19 -21 -58 -21
q-34 0 -57 20.5t-23 54.5q0 50 53 95q75 64 224 64q28 0 71 -4t51 -4q60 0 125 19zM697 591q-79 -58 -184 -215h62q40 83 54 110q33 61 68 105zM770 689q-23 0 -23 27q0 15 10.5 28.5t24.5 13.5q23 0 23 -28q0 -15 -10 -28t-25 -13zM660 689q-23 0 -23 27q0 15 10 28.5
t25 13.5q23 0 23 -28q0 -15 -10.5 -28t-24.5 -13z" />
    <glyph glyph-name="Aring" unicode="&#xc5;" horiz-adv-x="618" 
d="M423 377q107 173 209 239q-2 9 0 18q4 17 29 43t41 26q4 0 26 -15q14 -10 13 -28q-10 -48 -47 -65l-14 -21q-37 -57 -90 -188q-71 -177 -75 -291q-1 -30 5 -45t19 -15q25 1 64 43q36 39 65 92q7 -2 9 -10q2 -7 -1 -12q-31 -62 -80 -103q-52 -42 -110 -51q-43 2 -42 76
q0 62 23 140q6 21 48 139l-5 3l-71 -7l-88 -123q-53 -72 -98 -119q-111 -115 -185 -115q-79 0 -79 60q0 28 15 50h3q32 -45 93 -45q73 0 151 82q33 35 78 103q57 87 71 106q-44 3 -84 5q-7 4 -1 8q39 27 108 20zM645 591q-79 -58 -184 -215h62q40 83 54 110q33 61 68 105z
M718 662q-1 3 -4 8q-1 2 -8 9q-27 -1 -49 -37q-6 -10 -4 -21q2 -9 11 -13q37 6 52 40q4 10 2 14z" />
    <glyph glyph-name="Ccedilla" unicode="&#xc7;" horiz-adv-x="303" 
d="M440 579q0 45 -43 45q-60 0 -153 -94q-87 -87 -103 -145q20 -9 48 -9q80 0 163 61q88 65 88 142zM62 -75l-4 11q28 19 56 58q-97 26 -97 157q0 61 25 128q6 16 43 96q-97 65 -97 159q0 51 34.5 96t84.5 60q40 13 43 -3q-18 -2 -32 -9q-39 -19 -61.5 -59.5t-22.5 -82.5
q0 -96 68 -133q75 119 183 195q88 62 137 62q63 0 63 -80q0 -79 -69 -151q-80 -83 -196 -83q-48 0 -99 15q-45 -92 -45 -174q0 -68 32 -108q34 -43 95 -43q57 0 107 56q41 45 43 69q18 -1 13 -19q-14 -53 -77 -101t-129 -51q-31 -37 -98 -65z" />
    <glyph glyph-name="Eacute" unicode="&#xc9;" horiz-adv-x="498" 
d="M505 222q-4 -87 -95 -159t-201 -72q-91 0 -142 56q-43 48 -40 113q5 97 81 168q63 60 157 87q-1 1 -7 21q-3 13 -14 10q-26 -8 -52 -8q-34 0 -64 18q-40 24 -38 69q2 43 36.5 83t87.5 59q7 1 14 -5q-3 -5 -9 -9q-34 -23 -47 -37q-27 -30 -29 -71q-2 -35 29 -55
q23 -16 51 -16q9 0 25 2q7 82 82 146q68 57 128 57q40 0 38 -38q-2 -36 -66 -90q-52 -43 -116 -77q4 -28 24 -48q24 7 39 7q23 0 36 -5.5t13 -17.5q-2 -39 -70 -39q-20 0 -50 17q-12 7 -23 7q-36 0 -94 -40q-88 -59 -92 -162q-4 -71 43 -120.5t113 -49.5q68 0 133 46.5
t87 107.5q10 30 17 85q7 9 14 -5q2 -17 1 -35zM431 647q-32 0 -67 -40q-38 -45 -48 -110q51 23 90.5 60.5t40.5 73.5q1 16 -16 16zM450 704l-4 11q28 19 54 55q19 26 31 26q19 0 19 -18q0 -33 -100 -74z" />
    <glyph glyph-name="Ntilde" unicode="&#xd1;" horiz-adv-x="551" 
d="M824 644q-1 -45 -30 -65q-21 42 -64 44q-54 1 -92 -77q-40 -84 -81 -216l-68 -220q-42 -123 -90 -123q-18 0 -22 16q-11 57 -11 159q0 215 -14 320q-10 68 -16 71q-6 0 -15 -27l-62 -226q-37 -134 -78 -220q-23 -46 -68 -75.5t-97 -29.5q-17 0 -31 4q-17 6 -17 17
q0 16 15 16q8 0 15 -10.5t26 -10.5q70 0 130 126q41 88 88 252q53 182 83 255q6 12 13.5 25.5t20.5 16.5q31 8 41 -64q16 -122 23 -475q0 -25 2 -34q2 -17 9 -17q13 0 22 35q47 182 62 232q41 129 95 219q28 45 67 80q51 45 96 45q18 0 33 -13.5t15 -29.5zM645 750l7 -6
q-42 -46 -74 -46q-18 0 -42.5 7t-28.5 7q-7 0 -23 -6.5t-21 -11.5l-7 6q43 47 73 47q18 0 42 -7.5t28 -7.5q7 0 24 6.5t22 11.5z" />
    <glyph glyph-name="Odieresis" unicode="&#xd6;" horiz-adv-x="532" 
d="M636 495q0 -101 -68 -222q-65 -117 -162 -195q-104 -84 -197 -84q-56 0 -92.5 49.5t-36.5 126.5q0 119 71 250q77 142 191 204q71 39 111 39q14 0 15 -5q-122 -46 -174 -98q-70 -68 -111 -169q-39 -96 -39 -185q2 -161 127 -158q110 2 218 158q103 150 103 282
q0 53 -30 85t-76 32q-93 0 -172 -129q-29 -46 -48.5 -112.5t-14.5 -94.5q-9 -6 -13 8q-6 23 -6 48q0 63 42 145q40 78 103 123q67 48 147 48q46 0 75 -30q37 -38 37 -116zM530 689q-23 0 -23 27q0 15 10.5 28.5t24.5 13.5q23 0 23 -28q0 -15 -10 -28t-25 -13zM420 689
q-23 0 -23 27q0 15 10 28.5t25 13.5q23 0 23 -28q0 -15 -10.5 -28t-24.5 -13z" />
    <glyph glyph-name="Udieresis" unicode="&#xdc;" horiz-adv-x="553" 
d="M475 -8q-21 0 -38 20q-24 28 -22 85q0 15 11 90q-163 -194 -241 -194q-66 0 -59 102q3 57 55 200l80 223q7 26 7 48q0 67 -56 67q-97 0 -99 -110q0 -50 34 -50q31 0 61 36q13 -4 4 -18q-34 -48 -87 -48q-28 0 -46.5 17.5t-18.5 48.5q1 65 47 111q53 52 140 52
q33 0 60 -22q34 -29 34 -80q1 -41 -31 -126l-52 -138q-27 -78 -45 -142q-9 -35 -9 -61q0 -44 27 -44q41 0 103 60q57 54 109 135q40 134 69 205q41 103 93 172q20 26 42 26q5 0 9 -2q17 -8 13 -38q-16 -104 -150 -305q-15 -64 -21 -92q-10 -54 -11 -95q-2 -85 30 -85
q36 0 80 40q35 32 63 76q5 0 7 -10q3 -10 -1 -17q-35 -59 -89 -98t-102 -39zM460 689q-23 0 -23 27q0 15 10.5 28.5t24.5 13.5q23 0 23 -28q0 -15 -10 -28t-25 -13zM350 689q-23 0 -23 27q0 15 10 28.5t25 13.5q23 0 23 -28q0 -15 -10.5 -28t-24.5 -13z" />
    <glyph glyph-name="aacute" unicode="&#xe1;" horiz-adv-x="269" 
d="M295 103q-21 -41 -67 -74.5t-77 -33.5q-25 0 -25 34q0 9 2 22l-46 -31q-34 -21 -56 -21q-40 0 -40 40q0 65 83 140q79 72 134 72q29 0 30 -23q0 -12 -10.5 -22.5t-21.5 -10.5q-11 10 -31 10q-36 1 -73.5 -42.5t-42.5 -87.5q-4 -27 18 -27q10 0 47 27q23 30 77 81
q18 5 26 0q3 -3 -4 -20l-20 -41q-12 -28 -12 -43q0 -11 11 -11q16 1 42.5 24.5t46.5 54.5q14 -8 9 -17zM213 303l-4 11q28 19 54 55q19 26 31 26q19 0 19 -18q0 -33 -100 -74z" />
    <glyph glyph-name="agrave" unicode="&#xe0;" horiz-adv-x="269" 
d="M295 103q-21 -41 -67 -74.5t-77 -33.5q-25 0 -25 34q0 9 2 22l-46 -31q-34 -21 -56 -21q-40 0 -40 40q0 65 83 140q79 72 134 72q29 0 30 -23q0 -12 -10.5 -22.5t-21.5 -10.5q-11 10 -31 10q-36 1 -73.5 -42.5t-42.5 -87.5q-4 -27 18 -27q10 0 47 27q23 30 77 81
q18 5 26 0q3 -3 -4 -20l-20 -41q-12 -28 -12 -43q0 -11 11 -11q16 1 42.5 24.5t46.5 54.5q14 -8 9 -17zM225 297l-4 -11q-100 41 -100 74q0 18 19 18q12 0 31 -26q26 -36 54 -55z" />
    <glyph glyph-name="acircumflex" unicode="&#xe2;" horiz-adv-x="269" 
d="M295 103q-21 -41 -67 -74.5t-77 -33.5q-25 0 -25 34q0 9 2 22l-46 -31q-34 -21 -56 -21q-40 0 -40 40q0 65 83 140q79 72 134 72q29 0 30 -23q0 -12 -10.5 -22.5t-21.5 -10.5q-11 10 -31 10q-36 1 -73.5 -42.5t-42.5 -87.5q-4 -27 18 -27q10 0 47 27q23 30 77 81
q18 5 26 0q3 -3 -4 -20l-20 -41q-12 -28 -12 -43q0 -11 11 -11q16 1 42.5 24.5t46.5 54.5q14 -8 9 -17zM260 351q6 -18 12 -48q-11 -9 -12 -9l-33 63l-102 -65q-11 8 -2 16q21 19 65 54q52 43 58 42q2 0 14 -53z" />
    <glyph glyph-name="adieresis" unicode="&#xe4;" horiz-adv-x="269" 
d="M295 103q-21 -41 -67 -74.5t-77 -33.5q-25 0 -25 34q0 9 2 22l-46 -31q-34 -21 -56 -21q-40 0 -40 40q0 65 83 140q79 72 134 72q29 0 30 -23q0 -12 -10.5 -22.5t-21.5 -10.5q-11 10 -31 10q-36 1 -73.5 -42.5t-42.5 -87.5q-4 -27 18 -27q10 0 47 27q23 30 77 81
q18 5 26 0q3 -3 -4 -20l-20 -41q-12 -28 -12 -43q0 -11 11 -11q16 1 42.5 24.5t46.5 54.5q14 -8 9 -17zM260 302q-23 0 -23 27q0 15 10.5 28.5t24.5 13.5q23 0 23 -28q0 -15 -10 -28t-25 -13zM150 302q-23 0 -23 27q0 15 10 28.5t25 13.5q23 0 23 -28q0 -15 -10.5 -28
t-24.5 -13z" />
    <glyph glyph-name="atilde" unicode="&#xe3;" horiz-adv-x="269" 
d="M295 103q-21 -41 -67 -74.5t-77 -33.5q-25 0 -25 34q0 9 2 22l-46 -31q-34 -21 -56 -21q-40 0 -40 40q0 65 83 140q79 72 134 72q29 0 30 -23q0 -12 -10.5 -22.5t-21.5 -10.5q-11 10 -31 10q-36 1 -73.5 -42.5t-42.5 -87.5q-4 -27 18 -27q10 0 47 27q23 30 77 81
q18 5 26 0q3 -3 -4 -20l-20 -41q-12 -28 -12 -43q0 -11 11 -11q16 1 42.5 24.5t46.5 54.5q14 -8 9 -17zM304 350l7 -6q-42 -46 -74 -46q-18 0 -42.5 7t-28.5 7q-7 0 -23 -6.5t-21 -11.5l-7 6q43 47 73 47q18 0 42 -7.5t28 -7.5q7 0 24 6.5t22 11.5z" />
    <glyph glyph-name="aring" unicode="&#xe5;" horiz-adv-x="269" 
d="M295 103q-21 -41 -67 -74.5t-77 -33.5q-25 0 -25 34q0 9 2 22l-46 -31q-34 -21 -56 -21q-40 0 -40 40q0 65 83 140q79 72 134 72q29 0 30 -23q0 -12 -10.5 -22.5t-21.5 -10.5q-11 10 -31 10q-36 1 -73.5 -42.5t-42.5 -87.5q-4 -27 18 -27q10 0 47 27q23 30 77 81
q18 5 26 0q3 -3 -4 -20l-20 -41q-12 -28 -12 -43q0 -11 11 -11q16 1 42.5 24.5t46.5 54.5q14 -8 9 -17zM194 272q-19 0 -30 14t-8 32q4 17 29.5 42.5t41.5 25.5q3 0 25 -15q14 -10 13 -28q-6 -29 -24 -49q-21 -22 -47 -22zM243 345q-2 3 -4 8q-1 2 -9 9q-26 -1 -48 -37
q-6 -10 -4 -21q2 -9 11 -13q37 6 52 41q4 9 2 13z" />
    <glyph glyph-name="ccedilla" unicode="&#xe7;" horiz-adv-x="197" 
d="M-4 -74l-4 11q41 28 60 64q-49 9 -48 64q1 54 58.5 110t111.5 56q27 0 27 -23q0 -26 -32 -38l-4 1q-24 22 -40 22q-20 0 -40 -26q-21 -29 -21 -65q0 -61 50 -61q56 0 106 82q11 -2 8 -17q-4 -22 -40 -53q-46 -39 -92 -51v-2q-2 -34 -100 -74z" />
    <glyph glyph-name="eacute" unicode="&#xe9;" horiz-adv-x="202" 
d="M234 110q-1 -25 -51 -65q-56 -46 -113 -46q-65 0 -65 62q0 59 56 114.5t112 55.5q28 0 28 -30q0 -32 -39.5 -64t-91.5 -47q-3 -17 9 -33t36 -16q60 0 111 82q9 -4 8 -13zM149 182q0 16 -16 16q-21 0 -45.5 -34t-20.5 -53q29 -2 57 26q25 25 25 45zM163 273l-4 11
q28 19 54 55q19 26 31 26q19 0 19 -18q0 -33 -100 -74z" />
    <glyph glyph-name="egrave" unicode="&#xe8;" horiz-adv-x="202" 
d="M234 110q-1 -25 -51 -65q-56 -46 -113 -46q-65 0 -65 62q0 59 56 114.5t112 55.5q28 0 28 -30q0 -32 -39.5 -64t-91.5 -47q-3 -17 9 -33t36 -16q60 0 111 82q9 -4 8 -13zM149 182q0 16 -16 16q-21 0 -45.5 -34t-20.5 -53q29 -2 57 26q25 25 25 45zM195 287l-4 -11
q-100 41 -100 74q0 18 19 18q12 0 31 -26q26 -36 54 -55z" />
    <glyph glyph-name="ecircumflex" unicode="&#xea;" horiz-adv-x="202" 
d="M234 108q-1 -25 -51 -65q-56 -46 -113 -46q-65 0 -65 62q0 59 56 114.5t112 55.5q28 0 28 -30q0 -32 -39.5 -64t-91.5 -47q-3 -17 9 -33t36 -16q60 0 111 82q9 -4 8 -13zM149 180q0 16 -16 16q-21 0 -45.5 -34t-20.5 -53q29 -2 57 26q25 25 25 45zM220 314q6 -18 12 -48
q-11 -9 -12 -9l-33 63l-102 -65q-11 8 -2 16q21 19 65 54q52 43 58 42q2 0 14 -53z" />
    <glyph glyph-name="edieresis" unicode="&#xeb;" horiz-adv-x="202" 
d="M234 110q-1 -25 -51 -65q-56 -46 -113 -46q-65 0 -65 62q0 59 56 114.5t112 55.5q28 0 28 -30q0 -32 -39.5 -64t-91.5 -47q-3 -17 9 -33t36 -16q60 0 111 82q9 -4 8 -13zM149 182q0 16 -16 16q-21 0 -45.5 -34t-20.5 -53q29 -2 57 26q25 25 25 45zM210 272q-23 0 -23 27
q0 15 10.5 28.5t24.5 13.5q23 0 23 -28q0 -15 -10 -28t-25 -13zM100 272q-23 0 -23 27q0 15 10 28.5t25 13.5q23 0 23 -28q0 -15 -10.5 -28t-24.5 -13z" />
    <glyph glyph-name="iacute" unicode="&#xed;" horiz-adv-x="130" 
d="M165 109q-17 -39 -62.5 -73t-81.5 -36q-29 -1 -29 32q0 28 25 85q21 47 41 77t62 26q6 -7 6 -6q-25 -32 -56 -103q-11 -26 -13 -44q-1 -10 3 -15.5t12 -5.5q34 1 84 80q11 -9 9 -17zM113 273l-4 11q28 19 54 55q19 26 31 26q19 0 19 -18q0 -33 -100 -74z" />
    <glyph glyph-name="igrave" unicode="&#xec;" horiz-adv-x="130" 
d="M165 109q-17 -39 -62.5 -73t-81.5 -36q-29 -1 -29 32q0 28 25 85q21 47 41 77t62 26q6 -7 6 -6q-25 -32 -56 -103q-11 -26 -13 -44q-1 -10 3 -15.5t12 -5.5q34 1 84 80q11 -9 9 -17zM135 277l-4 -11q-100 41 -100 74q0 18 19 18q12 0 31 -26q26 -36 54 -55z" />
    <glyph glyph-name="icircumflex" unicode="&#xee;" horiz-adv-x="130" 
d="M165 109q-17 -39 -62.5 -73t-81.5 -36q-29 -1 -29 32q0 28 25 85q21 47 41 77t62 26q6 -7 6 -6q-25 -32 -56 -103q-11 -26 -13 -44q-1 -10 3 -15.5t12 -5.5q34 1 84 80q11 -9 9 -17zM180 311q6 -18 12 -48q-11 -9 -12 -9l-33 63l-102 -65q-11 8 -2 16q21 19 65 54
q52 43 58 42q2 0 14 -53z" />
    <glyph glyph-name="idieresis" unicode="&#xef;" horiz-adv-x="130" 
d="M165 109q-17 -39 -62.5 -73t-81.5 -36q-29 -1 -29 32q0 28 25 85q21 47 41 77t62 26q6 -7 6 -6q-25 -32 -56 -103q-11 -26 -13 -44q-1 -10 3 -15.5t12 -5.5q34 1 84 80q11 -9 9 -17zM180 272q-23 0 -23 27q0 15 10.5 28.5t24.5 13.5q23 0 23 -28q0 -15 -10 -28t-25 -13z
M70 272q-23 0 -23 27q0 15 10 28.5t25 13.5q23 0 23 -28q0 -15 -10.5 -28t-24.5 -13z" />
    <glyph glyph-name="ntilde" unicode="&#xf1;" horiz-adv-x="261" 
d="M287 97q-14 -30 -58 -66t-67 -36q-31 0 -31 48q0 10 9 71q-10 3 -26 -11q-35 -32 -92 -96q-4 -7 -20 -7q-15 -1 -17 5q9 47 36 118q28 77 50 103q7 4 30 0q7 -2 6 -12q-11 -27 -45 -127l2 -2l53 52q43 39 66 48q13 4 18 -4q2 -16 0 -38q-1 -4 -5 -40q-4 -32 -4 -38
q0 -20 13 -20q16 1 43 32q20 22 31 39q12 -9 8 -19zM294 320l7 -6q-42 -46 -74 -46q-18 0 -42.5 7t-28.5 7q-7 0 -23 -6.5t-21 -11.5l-7 6q43 47 73 47q18 0 42 -7.5t28 -7.5q7 0 24 6.5t22 11.5z" />
    <glyph glyph-name="oacute" unicode="&#xf3;" 
d="M290 101q-19 -34 -54 -33q-34 1 -45 48q-20 -42 -53 -73q-45 -43 -98 -43q-45 0 -45 48q0 63 74 128q67 58 126 68q3 -1 6 -5q0 -8 -5 -9q-39 -10 -82 -47q-58 -49 -58 -107q0 -37 29 -37q25 0 56 35q26 31 42 65q-7 15 -7 35q0 36 24 36t24 -33q0 -23 -10 -44
q2 -43 31 -43q22 0 43 44q14 -9 2 -33zM203 293l-4 11q28 19 54 55q19 26 31 26q19 0 19 -18q0 -33 -100 -74z" />
    <glyph glyph-name="ograve" unicode="&#xf2;" 
d="M290 101q-19 -34 -54 -33q-34 1 -45 48q-20 -42 -53 -73q-45 -43 -98 -43q-45 0 -45 48q0 63 74 128q67 58 126 68q3 -1 6 -5q0 -8 -5 -9q-39 -10 -82 -47q-58 -49 -58 -107q0 -37 29 -37q25 0 56 35q26 31 42 65q-7 15 -7 35q0 36 24 36t24 -33q0 -23 -10 -44
q2 -43 31 -43q22 0 43 44q14 -9 2 -33zM215 297l-4 -11q-100 41 -100 74q0 18 19 18q12 0 31 -26q26 -36 54 -55z" />
    <glyph glyph-name="ocircumflex" unicode="&#xf4;" 
d="M290 101q-19 -34 -54 -33q-34 1 -45 48q-20 -42 -53 -73q-45 -43 -98 -43q-45 0 -45 48q0 63 74 128q67 58 126 68q3 -1 6 -5q0 -8 -5 -9q-39 -10 -82 -47q-58 -49 -58 -107q0 -37 29 -37q25 0 56 35q26 31 42 65q-7 15 -7 35q0 36 24 36t24 -33q0 -23 -10 -44
q2 -43 31 -43q22 0 43 44q14 -9 2 -33zM280 331q6 -18 12 -48q-11 -9 -12 -9l-33 63l-102 -65q-11 8 -2 16q21 19 65 54q52 43 58 42q2 0 14 -53z" />
    <glyph glyph-name="odieresis" unicode="&#xf6;" 
d="M290 101q-19 -34 -54 -33q-34 1 -45 48q-20 -42 -53 -73q-45 -43 -98 -43q-45 0 -45 48q0 63 74 128q67 58 126 68q3 -1 6 -5q0 -8 -5 -9q-39 -10 -82 -47q-58 -49 -58 -107q0 -37 29 -37q25 0 56 35q26 31 42 65q-7 15 -7 35q0 36 24 36t24 -33q0 -23 -10 -44
q2 -43 31 -43q22 0 43 44q14 -9 2 -33zM240 292q-23 0 -23 27q0 15 10.5 28.5t24.5 13.5q23 0 23 -28q0 -15 -10 -28t-25 -13zM130 292q-23 0 -23 27q0 15 10 28.5t25 13.5q23 0 23 -28q0 -15 -10.5 -28t-24.5 -13z" />
    <glyph glyph-name="otilde" unicode="&#xf5;" 
d="M290 101q-19 -34 -54 -33q-34 1 -45 48q-20 -42 -53 -73q-45 -43 -98 -43q-45 0 -45 48q0 63 74 128q67 58 126 68q3 -1 6 -5q0 -8 -5 -9q-39 -10 -82 -47q-58 -49 -58 -107q0 -37 29 -37q25 0 56 35q26 31 42 65q-7 15 -7 35q0 36 24 36t24 -33q0 -23 -10 -44
q2 -43 31 -43q22 0 43 44q14 -9 2 -33zM284 340l7 -6q-42 -46 -74 -46q-18 0 -42.5 7t-28.5 7q-7 0 -23 -6.5t-21 -11.5l-7 6q43 47 73 47q18 0 42 -7.5t28 -7.5q7 0 24 6.5t22 11.5z" />
    <glyph glyph-name="uacute" unicode="&#xfa;" horiz-adv-x="243" 
d="M273 101q-21 -37 -63.5 -70.5t-63.5 -33.5q-23 0 -23 31q0 21 10 48q-53 -48 -59 -52q-28 -22 -51 -22q-30 0 -30 37q0 25 25 75.5t54 77.5q17 12 47 5v-1q-18 -31 -48 -89q-14 -30 -14 -43q0 -11 8 -11q19 -2 60 50l50 69q12 16 26 16q9 0 18 -8q-17 -41 -28 -90
q-5 -23 -4 -31t8 -8q13 0 37 27q20 21 33 42q14 -10 8 -19zM173 253l-4 11q28 19 54 55q19 26 31 26q19 0 19 -18q0 -33 -100 -74z" />
    <glyph glyph-name="ugrave" unicode="&#xf9;" horiz-adv-x="243" 
d="M273 101q-21 -37 -63.5 -70.5t-63.5 -33.5q-23 0 -23 31q0 21 10 48q-53 -48 -59 -52q-28 -22 -51 -22q-30 0 -30 37q0 25 25 75.5t54 77.5q17 12 47 5v-1q-18 -31 -48 -89q-14 -30 -14 -43q0 -11 8 -11q19 -2 60 50l50 69q12 16 26 16q9 0 18 -8q-17 -41 -28 -90
q-5 -23 -4 -31t8 -8q13 0 37 27q20 21 33 42q14 -10 8 -19zM195 257l-4 -11q-100 41 -100 74q0 18 19 18q12 0 31 -26q26 -36 54 -55z" />
    <glyph glyph-name="ucircumflex" unicode="&#xfb;" horiz-adv-x="243" 
d="M273 101q-21 -37 -63.5 -70.5t-63.5 -33.5q-23 0 -23 31q0 21 10 48q-53 -48 -59 -52q-28 -22 -51 -22q-30 0 -30 37q0 25 25 75.5t54 77.5q17 12 47 5v-1q-18 -31 -48 -89q-14 -30 -14 -43q0 -11 8 -11q19 -2 60 50l50 69q12 16 26 16q9 0 18 -8q-17 -41 -28 -90
q-5 -23 -4 -31t8 -8q13 0 37 27q20 21 33 42q14 -10 8 -19zM240 301q6 -18 12 -48q-11 -9 -12 -9l-33 63l-102 -65q-11 8 -2 16q21 19 65 54q52 43 58 42q2 0 14 -53z" />
    <glyph glyph-name="udieresis" unicode="&#xfc;" horiz-adv-x="243" 
d="M273 101q-21 -37 -63.5 -70.5t-63.5 -33.5q-23 0 -23 31q0 21 10 48q-53 -48 -59 -52q-28 -22 -51 -22q-30 0 -30 37q0 25 25 75.5t54 77.5q17 12 47 5v-1q-18 -31 -48 -89q-14 -30 -14 -43q0 -11 8 -11q19 -2 60 50l50 69q12 16 26 16q9 0 18 -8q-17 -41 -28 -90
q-5 -23 -4 -31t8 -8q13 0 37 27q20 21 33 42q14 -10 8 -19zM240 262q-23 0 -23 27q0 15 10.5 28.5t24.5 13.5q23 0 23 -28q0 -15 -10 -28t-25 -13zM130 262q-23 0 -23 27q0 15 10 28.5t25 13.5q23 0 23 -28q0 -15 -10.5 -28t-24.5 -13z" />
    <glyph glyph-name="degree" unicode="&#xb0;" horiz-adv-x="339" 
d="M160 256q-21 0 -33 8q-23 24 -23 79q0 67 47 120q45 50 94 50q35 0 51 -32q10 -20 10 -43q0 -68 -37 -122q-42 -60 -109 -60zM222 481q-24 0 -49 -34q-28 -38 -28 -86q0 -71 29 -72q34 -1 62 40.5t28 89.5q0 62 -42 62z" />
    <glyph glyph-name="nonbreakingspace" unicode="&#xa0;" horiz-adv-x="130" 
 />
    <glyph glyph-name="Agrave" unicode="&#xc0;" horiz-adv-x="618" 
d="M839 664q-63 -21 -107 -90q-37 -57 -90 -188q-71 -177 -75 -291q-1 -30 5 -45t19 -15q25 1 64 43q36 39 65 92q7 -2 9 -10q2 -7 -1 -12q-31 -62 -80 -103q-52 -42 -110 -51q-43 2 -42 76q0 62 23 140q6 21 48 139l-5 3l-71 -7l-88 -123q-53 -73 -98 -119
q-111 -115 -185 -115q-79 0 -79 60q0 28 15 50h3q32 -45 93 -45q73 0 151 82q33 35 78 103q57 87 71 106q-44 3 -84 5q-7 4 -1 8q39 27 108 20q118 190 233 253q-53 -1 -103 3q-54 4 -71 4q-78 0 -125 -43q-42 -38 -42 -90q0 -57 63 -57q9 0 20 1v-1q-19 -21 -58 -21
q-34 0 -57 20.5t-23 54.5q0 50 53 95q75 64 224 64q28 0 71 -4t51 -4q60 0 125 19zM697 591q-79 -58 -184 -215h62q40 83 54 110q33 61 68 105zM755 696l-4 -11q-100 41 -100 74q0 18 19 18q12 0 31 -26q26 -36 54 -55z" />
    <glyph glyph-name="Atilde" unicode="&#xc3;" horiz-adv-x="618" 
d="M839 664q-63 -21 -107 -90q-37 -57 -90 -188q-71 -177 -75 -291q-1 -30 5 -45t19 -15q25 1 64 43q36 39 65 92q7 -2 9 -10q2 -7 -1 -12q-31 -62 -80 -103q-52 -42 -110 -51q-43 2 -42 76q0 62 23 140q6 21 48 139l-5 3l-71 -7l-88 -123q-53 -73 -98 -119
q-111 -115 -185 -115q-79 0 -79 60q0 28 15 50h3q32 -45 93 -45q73 0 151 82q33 35 78 103q57 87 71 106q-44 3 -84 5q-7 4 -1 8q39 27 108 20q118 190 233 253q-53 -1 -103 3q-54 4 -71 4q-78 0 -125 -43q-42 -38 -42 -90q0 -57 63 -57q9 0 20 1v-1q-19 -21 -58 -21
q-34 0 -57 20.5t-23 54.5q0 50 53 95q75 64 224 64q28 0 71 -4t51 -4q60 0 125 19zM697 591q-79 -58 -184 -215h62q40 83 54 110q33 61 68 105zM815 750l7 -6q-42 -46 -74 -46q-18 0 -42.5 7t-28.5 7q-7 0 -23 -6.5t-21 -11.5l-7 6q43 47 73 47q18 0 42 -7.5t28 -7.5
q7 0 24 6.5t22 11.5z" />
    <glyph glyph-name="Otilde" unicode="&#xd5;" horiz-adv-x="532" 
d="M636 495q0 -101 -68 -222q-65 -117 -162 -195q-104 -84 -197 -84q-56 0 -92.5 49.5t-36.5 126.5q0 119 71 250q77 142 191 204q71 39 111 39q14 0 15 -5q-122 -46 -174 -98q-70 -68 -111 -169q-39 -96 -39 -185q2 -161 127 -158q110 2 218 158q103 150 103 282
q0 53 -30 85t-76 32q-93 0 -172 -129q-29 -46 -48.5 -112.5t-14.5 -94.5q-9 -6 -13 8q-6 23 -6 48q0 63 42 145q40 78 103 123q67 48 147 48q46 0 75 -30q37 -38 37 -116zM605 750l7 -6q-42 -46 -74 -46q-18 0 -42.5 7t-28.5 7q-7 0 -23 -6.5t-21 -11.5l-7 6q43 47 73 47
q18 0 42 -7.5t28 -7.5q7 0 24 6.5t22 11.5z" />
    <glyph glyph-name="ydieresis" unicode="&#xff;" horiz-adv-x="236" 
d="M258 120q6 -8 6 -15q0 -9 -17 -27q-37 -38 -95 -62q-42 -99 -95 -178q-76 -113 -133 -113q-26 0 -24 37q3 61 61 129q53 62 135 114q12 28 32 83q-62 -63 -97 -63q-30 0 -30 40q0 18 8 38q11 28 34 65.5t38 49.5q25 12 45 7l2 -8q-53 -77 -69 -126q-7 -20 7 -23
q7 -1 24 12q21 15 92 118q16 23 42 14q-1 -5 -1 -14q-22 -53 -58 -150h4q57 24 89 72zM79 -31h-2q-112 -78 -143 -165q-6 -19 -6 -32q0 -18 12 -17q25 2 72 79q41 68 67 135zM230 272q-23 0 -23 27q0 15 10.5 28.5t24.5 13.5q23 0 23 -28q0 -15 -10 -28t-25 -13zM120 272
q-23 0 -23 27q0 15 10 28.5t25 13.5q23 0 23 -28q0 -15 -10.5 -28t-24.5 -13z" />
    <glyph glyph-name="Ydieresis" unicode="&#x178;" horiz-adv-x="500" 
d="M609 538q-2 -36 -30.5 -92.5t-69.5 -106.5q-55 -262 -201 -402q-108 -104 -209 -104q-62 0 -103 36q-47 42 -44 116q5 92 53 160q14 20 26 20q5 0 10 -2q-16 -18 -32 -57q-17 -42 -18 -70q-3 -53 22 -90q36 -52 120 -52q110 0 191 92q85 97 116 270l-2 2q-28 -29 -74 -54
q-52 -29 -87 -29q-41 0 -41 66q0 20 5 43l43 138q37 118 36 168q0 66 -67 66q-59 0 -104 -65q-36 -54 -38 -98q-4 -70 40 -70q30 0 75 44q10 -8 6 -12q-30 -38 -66 -63.5t-56 -25.5q-54 0 -50 86q4 87 77.5 165.5t160.5 78.5q91 0 91 -99q0 -23 -6 -61q-3 -17 -29 -95
q-26 -83 -34.5 -121.5t-8.5 -51.5q0 -35 31 -35q43 0 104 63q12 35 22 88q14 67 20 89q11 44 32 75q27 38 58 38q32 0 31 -48zM574 557q-29 8 -50 -145q-1 -4 -1 -6q1 -1 2 0q2 1 4 5q56 72 56 125q0 18 -11 21zM541 688q-23 0 -23 28q0 15 10 28.5t25 13.5q23 0 23 -28
q0 -15 -10.5 -28.5t-24.5 -13.5zM430 688q-23 0 -23 28q0 15 10.5 28.5t24.5 13.5q23 0 23 -28q0 -15 -10 -28.5t-25 -13.5z" />
    <glyph glyph-name="Acircumflex" unicode="&#xc2;" horiz-adv-x="618" 
d="M839 664q-63 -21 -107 -90q-37 -57 -90 -188q-71 -177 -75 -291q-1 -30 5 -45t19 -15q25 1 64 43q36 39 65 92q7 -2 9 -10q2 -7 -1 -12q-31 -62 -80 -103q-52 -42 -110 -51q-43 2 -42 76q0 62 23 140q6 21 48 139l-5 3l-71 -7l-88 -123q-53 -73 -98 -119
q-111 -115 -185 -115q-79 0 -79 60q0 28 15 50h3q32 -45 93 -45q73 0 151 82q33 35 78 103q57 87 71 106q-44 3 -84 5q-7 4 -1 8q39 27 108 20q118 190 233 253q-53 -1 -103 3q-54 4 -71 4q-78 0 -125 -43q-42 -38 -42 -90q0 -57 63 -57q9 0 20 1v-1q-19 -21 -58 -21
q-34 0 -57 20.5t-23 54.5q0 50 53 95q75 64 224 64q28 0 71 -4t51 -4q60 0 125 19zM697 591q-79 -58 -184 -215h62q40 83 54 110q33 61 68 105zM771 737q6 -18 12 -48q-11 -9 -12 -9l-33 63l-102 -65q-11 8 -2 16q21 19 65 54q52 43 58 42q2 0 14 -53z" />
    <glyph glyph-name="Ecircumflex" unicode="&#xca;" horiz-adv-x="498" 
d="M505 222q-4 -87 -95 -159t-201 -72q-91 0 -142 56q-43 48 -40 113q5 97 81 168q63 60 157 87q-1 1 -7 21q-3 13 -14 10q-26 -8 -52 -8q-34 0 -64 18q-40 24 -38 69q2 43 36.5 83t87.5 59q7 1 14 -5q-3 -5 -9 -9q-34 -23 -47 -37q-27 -30 -29 -71q-2 -35 29 -55
q23 -16 51 -16q9 0 25 2q7 82 82 146q68 57 128 57q40 0 38 -38q-2 -36 -66 -90q-52 -43 -116 -77q4 -28 24 -48q24 7 39 7q23 0 36 -5.5t13 -17.5q-2 -39 -70 -39q-20 0 -50 17q-12 7 -23 7q-36 0 -94 -40q-88 -59 -92 -162q-4 -71 43 -120.5t113 -49.5q68 0 133 46.5
t87 107.5q10 30 17 85q7 9 14 -5q2 -17 1 -35zM431 647q-32 0 -67 -40q-38 -45 -48 -110q51 23 90.5 60.5t40.5 73.5q1 16 -16 16zM511 747q6 -18 12 -48q-11 -9 -12 -9l-33 63l-102 -65q-11 8 -2 16q21 19 65 54q52 43 58 42q2 0 14 -53z" />
    <glyph glyph-name="Aacute" unicode="&#xc1;" horiz-adv-x="618" 
d="M839 664q-63 -21 -107 -90q-37 -57 -90 -188q-71 -177 -75 -291q-1 -30 5 -45t19 -15q25 1 64 43q36 39 65 92q7 -2 9 -10q2 -7 -1 -12q-31 -62 -80 -103q-52 -42 -110 -51q-43 2 -42 76q0 62 23 140q6 21 48 139l-5 3l-71 -7l-88 -123q-53 -73 -98 -119
q-111 -115 -185 -115q-79 0 -79 60q0 28 15 50h3q32 -45 93 -45q73 0 151 82q33 35 78 103q57 87 71 106q-44 3 -84 5q-7 4 -1 8q39 27 108 20q118 190 233 253q-53 -1 -103 3q-54 4 -71 4q-78 0 -125 -43q-42 -38 -42 -90q0 -57 63 -57q9 0 20 1v-1q-19 -21 -58 -21
q-34 0 -57 20.5t-23 54.5q0 50 53 95q75 64 224 64q28 0 71 -4t51 -4q60 0 125 19zM697 591q-79 -58 -184 -215h62q40 83 54 110q33 61 68 105zM720 684l-4 11q28 19 54 55q19 26 31 26q19 0 19 -18q0 -33 -100 -74z" />
    <glyph glyph-name="Edieresis" unicode="&#xcb;" horiz-adv-x="498" 
d="M505 222q-4 -87 -95 -159t-201 -72q-91 0 -142 56q-43 48 -40 113q5 97 81 168q63 60 157 87q-1 1 -7 21q-3 13 -14 10q-26 -8 -52 -8q-34 0 -64 18q-40 24 -38 69q2 43 36.5 83t87.5 59q7 1 14 -5q-3 -5 -9 -9q-34 -23 -47 -37q-27 -30 -29 -71q-2 -35 29 -55
q23 -16 51 -16q9 0 25 2q7 82 82 146q68 57 128 57q40 0 38 -38q-2 -36 -66 -90q-52 -43 -116 -77q4 -28 24 -48q24 7 39 7q23 0 36 -5.5t13 -17.5q-2 -39 -70 -39q-20 0 -50 17q-12 7 -23 7q-36 0 -94 -40q-88 -59 -92 -162q-4 -71 43 -120.5t113 -49.5q68 0 133 46.5
t87 107.5q10 30 17 85q7 9 14 -5q2 -17 1 -35zM431 647q-32 0 -67 -40q-38 -45 -48 -110q51 23 90.5 60.5t40.5 73.5q1 16 -16 16zM510 709q-23 0 -23 27q0 15 10.5 28.5t24.5 13.5q23 0 23 -28q0 -15 -10 -28t-25 -13zM400 709q-23 0 -23 27q0 15 10 28.5t25 13.5
q23 0 23 -28q0 -15 -10.5 -28t-24.5 -13z" />
    <glyph glyph-name="Egrave" unicode="&#xc8;" horiz-adv-x="498" 
d="M505 222q-4 -87 -95 -159t-201 -72q-91 0 -142 56q-43 48 -40 113q5 97 81 168q63 60 157 87q-1 1 -7 21q-3 13 -14 10q-26 -8 -52 -8q-34 0 -64 18q-40 24 -38 69q2 43 36.5 83t87.5 59q7 1 14 -5q-3 -5 -9 -9q-34 -23 -47 -37q-27 -30 -29 -71q-2 -35 29 -55
q23 -16 51 -16q9 0 25 2q7 82 82 146q68 57 128 57q40 0 38 -38q-2 -36 -66 -90q-52 -43 -116 -77q4 -28 24 -48q24 7 39 7q23 0 36 -5.5t13 -17.5q-2 -39 -70 -39q-20 0 -50 17q-12 7 -23 7q-36 0 -94 -40q-88 -59 -92 -162q-4 -71 43 -120.5t113 -49.5q68 0 133 46.5
t87 107.5q10 30 17 85q7 9 14 -5q2 -17 1 -35zM431 647q-32 0 -67 -40q-38 -45 -48 -110q51 23 90.5 60.5t40.5 73.5q1 16 -16 16zM495 716l-4 -11q-100 41 -100 74q0 18 19 18q12 0 31 -26q26 -36 54 -55z" />
    <glyph glyph-name="Iacute" unicode="&#xcd;" horiz-adv-x="459" 
d="M681 673l-2 -4q-111 -48 -127 -112q-40 -164 -78 -256q-58 -139 -146 -221q-113 -104 -205 -104q-55 0 -82 34q-21 28 -16 65q8 66 103 165q3 -2 6 -7q-35 -38 -45 -54q-19 -31 -19 -67q0 -88 101 -89q42 0 91 32q39 27 64 59q52 69 93 220q43 162 83 226q22 35 57 60
q-28 -3 -76 0q-54 3 -75 1q-99 -6 -106 -93q-7 -74 64 -74q15 0 28 5l3 -5q-35 -27 -79 -27q-31 0 -48 27t-13 60q7 56 55 96q58 47 156 47q13 0 42.5 -1t43.5 -1q74 0 118 27q9 -1 9 -9zM560 684l-4 11q28 19 54 55q19 26 31 26q19 0 19 -18q0 -33 -100 -74z" />
    <glyph glyph-name="Icircumflex" unicode="&#xce;" horiz-adv-x="459" 
d="M681 673l-2 -4q-111 -48 -127 -112q-40 -164 -78 -256q-58 -139 -146 -221q-113 -104 -205 -104q-55 0 -82 34q-21 28 -16 65q8 66 103 165q3 -2 6 -7q-35 -38 -45 -54q-19 -31 -19 -67q0 -88 101 -89q42 0 91 32q39 27 64 59q52 69 93 220q43 162 83 226q22 35 57 60
q-28 -3 -76 0q-54 3 -75 1q-99 -6 -106 -93q-7 -74 64 -74q15 0 28 5l3 -5q-35 -27 -79 -27q-31 0 -48 27t-13 60q7 56 55 96q58 47 156 47q13 0 42.5 -1t43.5 -1q74 0 118 27q9 -1 9 -9zM641 747q6 -18 12 -48q-11 -9 -12 -9l-33 63l-102 -65q-11 8 -2 16q21 19 65 54
q52 43 58 42q2 0 14 -53z" />
    <glyph glyph-name="Idieresis" unicode="&#xcf;" horiz-adv-x="459" 
d="M681 673l-2 -4q-111 -48 -127 -112q-40 -164 -78 -256q-58 -139 -146 -221q-113 -104 -205 -104q-55 0 -82 34q-21 28 -16 65q8 66 103 165q3 -2 6 -7q-35 -38 -45 -54q-19 -31 -19 -67q0 -88 101 -89q42 0 91 32q39 27 64 59q52 69 93 220q43 162 83 226q22 35 57 60
q-28 -3 -76 0q-54 3 -75 1q-99 -6 -106 -93q-7 -74 64 -74q15 0 28 5l3 -5q-35 -27 -79 -27q-31 0 -48 27t-13 60q7 56 55 96q58 47 156 47q13 0 42.5 -1t43.5 -1q74 0 118 27q9 -1 9 -9zM590 699q-23 0 -23 27q0 15 10.5 28.5t24.5 13.5q23 0 23 -28q0 -15 -10 -28t-25 -13
zM480 699q-23 0 -23 27q0 15 10 28.5t25 13.5q23 0 23 -28q0 -15 -10.5 -28t-24.5 -13z" />
    <glyph glyph-name="Igrave" unicode="&#xcc;" horiz-adv-x="459" 
d="M681 673l-2 -4q-111 -48 -127 -112q-40 -164 -78 -256q-58 -139 -146 -221q-113 -104 -205 -104q-55 0 -82 34q-21 28 -16 65q8 66 103 165q3 -2 6 -7q-35 -38 -45 -54q-19 -31 -19 -67q0 -88 101 -89q42 0 91 32q39 27 64 59q52 69 93 220q43 162 83 226q22 35 57 60
q-28 -3 -76 0q-54 3 -75 1q-99 -6 -106 -93q-7 -74 64 -74q15 0 28 5l3 -5q-35 -27 -79 -27q-31 0 -48 27t-13 60q7 56 55 96q58 47 156 47q13 0 42.5 -1t43.5 -1q74 0 118 27q9 -1 9 -9zM595 696l-4 -11q-100 41 -100 74q0 18 19 18q12 0 31 -26q26 -36 54 -55z" />
    <glyph glyph-name="Oacute" unicode="&#xd3;" horiz-adv-x="532" 
d="M636 495q0 -101 -68 -222q-65 -117 -162 -195q-104 -84 -197 -84q-56 0 -92.5 49.5t-36.5 126.5q0 119 71 250q77 142 191 204q71 39 111 39q14 0 15 -5q-122 -46 -174 -98q-70 -68 -111 -169q-39 -96 -39 -185q2 -161 127 -158q110 2 218 158q103 150 103 282
q0 53 -30 85t-76 32q-93 0 -172 -129q-29 -46 -48.5 -112.5t-14.5 -94.5q-9 -6 -13 8q-6 23 -6 48q0 63 42 145q40 78 103 123q67 48 147 48q46 0 75 -30q37 -38 37 -116zM470 684l-4 11q28 19 54 55q19 26 31 26q19 0 19 -18q0 -33 -100 -74z" />
    <glyph glyph-name="Ocircumflex" unicode="&#xd4;" horiz-adv-x="532" 
d="M636 495q0 -101 -68 -222q-65 -117 -162 -195q-104 -84 -197 -84q-56 0 -92.5 49.5t-36.5 126.5q0 119 71 250q77 142 191 204q71 39 111 39q14 0 15 -5q-122 -46 -174 -98q-70 -68 -111 -169q-39 -96 -39 -185q2 -161 127 -158q110 2 218 158q103 150 103 282
q0 53 -30 85t-76 32q-93 0 -172 -129q-29 -46 -48.5 -112.5t-14.5 -94.5q-9 -6 -13 8q-6 23 -6 48q0 63 42 145q40 78 103 123q67 48 147 48q46 0 75 -30q37 -38 37 -116zM571 737q6 -18 12 -48q-11 -9 -12 -9l-33 63l-102 -65q-11 8 -2 16q21 19 65 54q52 43 58 42
q2 0 14 -53z" />
    <glyph glyph-name="Ograve" unicode="&#xd2;" horiz-adv-x="532" 
d="M636 495q0 -101 -68 -222q-65 -117 -162 -195q-104 -84 -197 -84q-56 0 -92.5 49.5t-36.5 126.5q0 119 71 250q77 142 191 204q71 39 111 39q14 0 15 -5q-122 -46 -174 -98q-70 -68 -111 -169q-39 -96 -39 -185q2 -161 127 -158q110 2 218 158q103 150 103 282
q0 53 -30 85t-76 32q-93 0 -172 -129q-29 -46 -48.5 -112.5t-14.5 -94.5q-9 -6 -13 8q-6 23 -6 48q0 63 42 145q40 78 103 123q67 48 147 48q46 0 75 -30q37 -38 37 -116zM525 696l-4 -11q-100 41 -100 74q0 18 19 18q12 0 31 -26q26 -36 54 -55z" />
    <glyph glyph-name="Uacute" unicode="&#xda;" horiz-adv-x="553" 
d="M475 -8q-21 0 -38 20q-24 28 -22 85q0 15 11 90q-163 -194 -241 -194q-66 0 -59 102q3 57 55 200l80 223q7 26 7 48q0 67 -56 67q-97 0 -99 -110q0 -50 34 -50q31 0 61 36q13 -4 4 -18q-34 -48 -87 -48q-28 0 -46.5 17.5t-18.5 48.5q1 65 47 111q53 52 140 52
q33 0 60 -22q34 -29 34 -80q1 -41 -31 -126l-52 -138q-27 -78 -45 -142q-9 -35 -9 -61q0 -44 27 -44q41 0 103 60q57 54 109 135q40 134 69 205q41 103 93 172q20 26 42 26q5 0 9 -2q17 -8 13 -38q-16 -104 -150 -305q-15 -64 -21 -92q-10 -54 -11 -95q-2 -85 30 -85
q36 0 80 40q35 32 63 76q5 0 7 -10q3 -10 -1 -17q-35 -59 -89 -98t-102 -39zM390 684l-4 11q28 19 54 55q19 26 31 26q19 0 19 -18q0 -33 -100 -74z" />
    <glyph glyph-name="Ucircumflex" unicode="&#xdb;" horiz-adv-x="553" 
d="M475 -8q-21 0 -38 20q-24 28 -22 85q0 15 11 90q-163 -194 -241 -194q-66 0 -59 102q3 57 55 200l80 223q7 26 7 48q0 67 -56 67q-97 0 -99 -110q0 -50 34 -50q31 0 61 36q13 -4 4 -18q-34 -48 -87 -48q-28 0 -46.5 17.5t-18.5 48.5q1 65 47 111q53 52 140 52
q33 0 60 -22q34 -29 34 -80q1 -41 -31 -126l-52 -138q-27 -78 -45 -142q-9 -35 -9 -61q0 -44 27 -44q41 0 103 60q57 54 109 135q40 134 69 205q41 103 93 172q20 26 42 26q5 0 9 -2q17 -8 13 -38q-16 -104 -150 -305q-15 -64 -21 -92q-10 -54 -11 -95q-2 -85 30 -85
q36 0 80 40q35 32 63 76q5 0 7 -10q3 -10 -1 -17q-35 -59 -89 -98t-102 -39zM481 747q6 -18 12 -48q-11 -9 -12 -9l-33 63l-102 -65q-11 8 -2 16q21 19 65 54q52 43 58 42q2 0 14 -53z" />
    <glyph glyph-name="Ugrave" unicode="&#xd9;" horiz-adv-x="553" 
d="M475 -8q-21 0 -38 20q-24 28 -22 85q0 15 11 90q-163 -194 -241 -194q-66 0 -59 102q3 57 55 200l80 223q7 26 7 48q0 67 -56 67q-97 0 -99 -110q0 -50 34 -50q31 0 61 36q13 -4 4 -18q-34 -48 -87 -48q-28 0 -46.5 17.5t-18.5 48.5q1 65 47 111q53 52 140 52
q33 0 60 -22q34 -29 34 -80q1 -41 -31 -126l-52 -138q-27 -78 -45 -142q-9 -35 -9 -61q0 -44 27 -44q41 0 103 60q57 54 109 135q40 134 69 205q41 103 93 172q20 26 42 26q5 0 9 -2q17 -8 13 -38q-16 -104 -150 -305q-15 -64 -21 -92q-10 -54 -11 -95q-2 -85 30 -85
q36 0 80 40q35 32 63 76q5 0 7 -10q3 -10 -1 -17q-35 -59 -89 -98t-102 -39zM445 696l-4 -11q-100 41 -100 74q0 18 19 18q12 0 31 -26q26 -36 54 -55z" />
    <glyph glyph-name="Euro" unicode="&#x20ac;" horiz-adv-x="424" 
d="M424 411l-6 33q-6 12 -34 12q-14 0 -37 -3q-83 -8 -150 -147q66 1 181 0q-8 -32 -38 -32q-19 0 -70 1h-89l-19 -49q74 -1 178 1q-6 -32 -41 -32h-63q-46 1 -83 1q-7 -25 -7 -48q0 -48 28 -80q25 -29 54 -29q66 0 98 20l46 42q4 -7 4 -15q0 -21 -21 -38q-56 -48 -138 -48
q-64 0 -100 33.5t-36 95.5q0 30 9 64h-64l5 25q4 9 16 9l52 -1q6 22 18 49q-11 -1 -68 -1q7 22 8 24q5 8 17 8h58q42 78 118 133t134 54q74 -2 75 -42q1 -23 -35 -40z" />
  </font>
</defs>
</svg>
