<svg id="Laag_1" data-name="Laag 1" xmlns="http://www.w3.org/2000/svg" viewBox="0 0 200 200"><defs><style>.cls-1{fill:none;stroke:#e32213;stroke-linecap:round;stroke-linejoin:round;stroke-width:2px}</style></defs><title>Tekengebied 1</title><path class="cls-1" d="M100.58 106.73V45.1M116.88 62.69s-1.09 13.88-16.27 13.15c-.89-13.26 16.27-13.15 16.27-13.15zM86.68 45.1s13.92.44 13.89 15.64C87.38 62.25 86.68 45.1 86.68 45.1zM100.58 79.45q-1.54-.13-3.12-.13a37.8 37.8 0 0 0-37.18 31s.29-1.29 0 0-.48 3.58-.48 3.58a37.94 37.94 0 0 0 7.43 26.23 36.4 36.4 0 0 0 39 13c14.13-4.21 24.38-17.41 24.39-32.24s-10.69-28.48-25.5-31.18a29.75 29.75 0 0 0-21.5 4.27 28.37 28.37 0 0 0-12 17 26.94 26.94 0 0 0 3.91 21.42 25.43 25.43 0 0 0 18 10.85 23.85 23.85 0 0 0 20.15-7.52 22.1 22.1 0 0 0 5.07-20.3A20.25 20.25 0 0 0 104 100.86a18.19 18.19 0 0 0-19.44 7.67c-3.92 6.22-3.3 14.72 2.15 19.86s14.63 5.19 19.31-1a10.75 10.75 0 0 0 1.76-9.7 8.87 8.87 0 0 0-7.65-6.23c-3.29-.21-6.8 2-7.1 5.47-.13 1.56.66 4.29 3.29 4.51 4.94.41 4.27-6.74 4.27-14.73"/><circle class="cls-1" cx="97.48" cy="117.13" r="37.81"/></svg>